<?xml version="1.0" encoding="utf-8" standalone="no"?>
<!DOCTYPE svg PUBLIC "-//W3C//DTD SVG 1.1//EN"
  "http://www.w3.org/Graphics/SVG/1.1/DTD/svg11.dtd">
<svg xmlns:xlink="http://www.w3.org/1999/xlink" width="414.844862pt" height="147.892932pt" viewBox="0 0 414.844862 147.892932" xmlns="http://www.w3.org/2000/svg" version="1.1">
 <metadata>
  <rdf:RDF xmlns:dc="http://purl.org/dc/elements/1.1/" xmlns:cc="http://creativecommons.org/ns#" xmlns:rdf="http://www.w3.org/1999/02/22-rdf-syntax-ns#">
   <cc:Work>
    <dc:type rdf:resource="http://purl.org/dc/dcmitype/StillImage"/>
    <dc:date>2022-08-30T17:13:53.531285</dc:date>
    <dc:format>image/svg+xml</dc:format>
    <dc:creator>
     <cc:Agent>
      <dc:title>Matplotlib v3.5.1, https://matplotlib.org/</dc:title>
     </cc:Agent>
    </dc:creator>
   </cc:Work>
  </rdf:RDF>
 </metadata>
 <defs>
  <style type="text/css">*{stroke-linejoin: round; stroke-linecap: butt}</style>
 </defs>
 <g id="figure_1">
  <g id="patch_1">
   <path d="M 0 147.892932 
L 414.844862 147.892932 
L 414.844862 0 
L 0 0 
L 0 147.892932 
z
" style="fill: none"/>
  </g>
  <g id="axes_1">
   <g id="patch_2">
    <path d="M 39.15 51.786638 
L 197.705375 51.786638 
L 197.705375 7.2 
L 39.15 7.2 
z
" style="fill: #ffffff"/>
   </g>
   <g id="PolyCollection_1">
    <path d="M 39.15 37.059647 
L 39.15 52.03125 
L 55.005537 40.340452 
L 70.861075 45.307142 
L 86.716612 38.811071 
L 102.57215 41.352763 
L 118.427687 36.046894 
L 134.283225 34.548624 
L 150.138762 35.81645 
L 165.9943 35.707274 
L 181.849837 31.006759 
L 197.705375 34.104276 
L 213.560912 34.963521 
L 213.560912 25.369338 
L 213.560912 25.369338 
L 197.705375 19.320683 
L 181.849837 15.507279 
L 165.9943 22.500052 
L 150.138762 26.274083 
L 134.283225 25.60778 
L 118.427687 19.833983 
L 102.57215 25.834522 
L 86.716612 31.262316 
L 70.861075 32.636594 
L 55.005537 33.131459 
L 39.15 37.059647 
z
" clip-path="url(#p8312060863)" style="fill: #19b382; fill-opacity: 0.2"/>
   </g>
   <g id="PolyCollection_2">
    <path d="M 39.15 31.28397 
L 39.15 39.014427 
L 55.005537 31.423031 
L 70.861075 27.954035 
L 86.716612 24.95927 
L 102.57215 30.926756 
L 118.427687 24.869495 
L 134.283225 27.715218 
L 150.138762 24.578727 
L 165.9943 21.43987 
L 181.849837 26.210544 
L 197.705375 25.066641 
L 213.560912 26.977216 
L 213.560912 12.253829 
L 213.560912 12.253829 
L 197.705375 7.830622 
L 181.849837 10.545308 
L 165.9943 7.361965 
L 150.138762 10.838064 
L 134.283225 13.209658 
L 118.427687 9.09945 
L 102.57215 16.726795 
L 86.716612 10.440332 
L 70.861075 15.748228 
L 55.005537 22.592974 
L 39.15 31.28397 
z
" clip-path="url(#p8312060863)" style="fill: #777777; fill-opacity: 0.2"/>
   </g>
   <g id="LineCollection_1">
    <path d="M 30.429454 41.878496 
L 222.281458 41.878496 
" clip-path="url(#p8312060863)" style="fill: none; stroke-dasharray: 1.85,0.8; stroke-dashoffset: 0; stroke: #666666; stroke-width: 0.5"/>
   </g>
   <g id="matplotlib.axis_1">
    <g id="xtick_1">
     <g id="line2d_1">
      <defs>
       <path id="m8dc194a706" d="M 0 0 
L 0 3.5 
" style="stroke: #666666; stroke-width: 0.8"/>
      </defs>
      <g>
       <use xlink:href="#m8dc194a706" x="39.15" y="51.786638" style="fill: #666666; stroke: #666666; stroke-width: 0.8"/>
      </g>
     </g>
    </g>
    <g id="xtick_2">
     <g id="line2d_2">
      <g>
       <use xlink:href="#m8dc194a706" x="118.427687" y="51.786638" style="fill: #666666; stroke: #666666; stroke-width: 0.8"/>
      </g>
     </g>
    </g>
    <g id="xtick_3">
     <g id="line2d_3">
      <g>
       <use xlink:href="#m8dc194a706" x="197.705375" y="51.786638" style="fill: #666666; stroke: #666666; stroke-width: 0.8"/>
      </g>
     </g>
    </g>
    <g id="text_1">
     <!-- Informative Trials -->
     <g style="fill: #666666" transform="translate(75.269094 63.385076)scale(0.1 -0.1)">
      <defs>
       <path id="DejaVuSans-49" d="M 628 4666 
L 1259 4666 
L 1259 0 
L 628 0 
L 628 4666 
z
" transform="scale(0.015625)"/>
       <path id="DejaVuSans-6e" d="M 3513 2113 
L 3513 0 
L 2938 0 
L 2938 2094 
Q 2938 2591 2744 2837 
Q 2550 3084 2163 3084 
Q 1697 3084 1428 2787 
Q 1159 2491 1159 1978 
L 1159 0 
L 581 0 
L 581 3500 
L 1159 3500 
L 1159 2956 
Q 1366 3272 1645 3428 
Q 1925 3584 2291 3584 
Q 2894 3584 3203 3211 
Q 3513 2838 3513 2113 
z
" transform="scale(0.015625)"/>
       <path id="DejaVuSans-66" d="M 2375 4863 
L 2375 4384 
L 1825 4384 
Q 1516 4384 1395 4259 
Q 1275 4134 1275 3809 
L 1275 3500 
L 2222 3500 
L 2222 3053 
L 1275 3053 
L 1275 0 
L 697 0 
L 697 3053 
L 147 3053 
L 147 3500 
L 697 3500 
L 697 3744 
Q 697 4328 969 4595 
Q 1241 4863 1831 4863 
L 2375 4863 
z
" transform="scale(0.015625)"/>
       <path id="DejaVuSans-6f" d="M 1959 3097 
Q 1497 3097 1228 2736 
Q 959 2375 959 1747 
Q 959 1119 1226 758 
Q 1494 397 1959 397 
Q 2419 397 2687 759 
Q 2956 1122 2956 1747 
Q 2956 2369 2687 2733 
Q 2419 3097 1959 3097 
z
M 1959 3584 
Q 2709 3584 3137 3096 
Q 3566 2609 3566 1747 
Q 3566 888 3137 398 
Q 2709 -91 1959 -91 
Q 1206 -91 779 398 
Q 353 888 353 1747 
Q 353 2609 779 3096 
Q 1206 3584 1959 3584 
z
" transform="scale(0.015625)"/>
       <path id="DejaVuSans-72" d="M 2631 2963 
Q 2534 3019 2420 3045 
Q 2306 3072 2169 3072 
Q 1681 3072 1420 2755 
Q 1159 2438 1159 1844 
L 1159 0 
L 581 0 
L 581 3500 
L 1159 3500 
L 1159 2956 
Q 1341 3275 1631 3429 
Q 1922 3584 2338 3584 
Q 2397 3584 2469 3576 
Q 2541 3569 2628 3553 
L 2631 2963 
z
" transform="scale(0.015625)"/>
       <path id="DejaVuSans-6d" d="M 3328 2828 
Q 3544 3216 3844 3400 
Q 4144 3584 4550 3584 
Q 5097 3584 5394 3201 
Q 5691 2819 5691 2113 
L 5691 0 
L 5113 0 
L 5113 2094 
Q 5113 2597 4934 2840 
Q 4756 3084 4391 3084 
Q 3944 3084 3684 2787 
Q 3425 2491 3425 1978 
L 3425 0 
L 2847 0 
L 2847 2094 
Q 2847 2600 2669 2842 
Q 2491 3084 2119 3084 
Q 1678 3084 1418 2786 
Q 1159 2488 1159 1978 
L 1159 0 
L 581 0 
L 581 3500 
L 1159 3500 
L 1159 2956 
Q 1356 3278 1631 3431 
Q 1906 3584 2284 3584 
Q 2666 3584 2933 3390 
Q 3200 3197 3328 2828 
z
" transform="scale(0.015625)"/>
       <path id="DejaVuSans-61" d="M 2194 1759 
Q 1497 1759 1228 1600 
Q 959 1441 959 1056 
Q 959 750 1161 570 
Q 1363 391 1709 391 
Q 2188 391 2477 730 
Q 2766 1069 2766 1631 
L 2766 1759 
L 2194 1759 
z
M 3341 1997 
L 3341 0 
L 2766 0 
L 2766 531 
Q 2569 213 2275 61 
Q 1981 -91 1556 -91 
Q 1019 -91 701 211 
Q 384 513 384 1019 
Q 384 1609 779 1909 
Q 1175 2209 1959 2209 
L 2766 2209 
L 2766 2266 
Q 2766 2663 2505 2880 
Q 2244 3097 1772 3097 
Q 1472 3097 1187 3025 
Q 903 2953 641 2809 
L 641 3341 
Q 956 3463 1253 3523 
Q 1550 3584 1831 3584 
Q 2591 3584 2966 3190 
Q 3341 2797 3341 1997 
z
" transform="scale(0.015625)"/>
       <path id="DejaVuSans-74" d="M 1172 4494 
L 1172 3500 
L 2356 3500 
L 2356 3053 
L 1172 3053 
L 1172 1153 
Q 1172 725 1289 603 
Q 1406 481 1766 481 
L 2356 481 
L 2356 0 
L 1766 0 
Q 1100 0 847 248 
Q 594 497 594 1153 
L 594 3053 
L 172 3053 
L 172 3500 
L 594 3500 
L 594 4494 
L 1172 4494 
z
" transform="scale(0.015625)"/>
       <path id="DejaVuSans-69" d="M 603 3500 
L 1178 3500 
L 1178 0 
L 603 0 
L 603 3500 
z
M 603 4863 
L 1178 4863 
L 1178 4134 
L 603 4134 
L 603 4863 
z
" transform="scale(0.015625)"/>
       <path id="DejaVuSans-76" d="M 191 3500 
L 800 3500 
L 1894 563 
L 2988 3500 
L 3597 3500 
L 2284 0 
L 1503 0 
L 191 3500 
z
" transform="scale(0.015625)"/>
       <path id="DejaVuSans-65" d="M 3597 1894 
L 3597 1613 
L 953 1613 
Q 991 1019 1311 708 
Q 1631 397 2203 397 
Q 2534 397 2845 478 
Q 3156 559 3463 722 
L 3463 178 
Q 3153 47 2828 -22 
Q 2503 -91 2169 -91 
Q 1331 -91 842 396 
Q 353 884 353 1716 
Q 353 2575 817 3079 
Q 1281 3584 2069 3584 
Q 2775 3584 3186 3129 
Q 3597 2675 3597 1894 
z
M 3022 2063 
Q 3016 2534 2758 2815 
Q 2500 3097 2075 3097 
Q 1594 3097 1305 2825 
Q 1016 2553 972 2059 
L 3022 2063 
z
" transform="scale(0.015625)"/>
       <path id="DejaVuSans-20" transform="scale(0.015625)"/>
       <path id="DejaVuSans-54" d="M -19 4666 
L 3928 4666 
L 3928 4134 
L 2272 4134 
L 2272 0 
L 1638 0 
L 1638 4134 
L -19 4134 
L -19 4666 
z
" transform="scale(0.015625)"/>
       <path id="DejaVuSans-6c" d="M 603 4863 
L 1178 4863 
L 1178 0 
L 603 0 
L 603 4863 
z
" transform="scale(0.015625)"/>
       <path id="DejaVuSans-73" d="M 2834 3397 
L 2834 2853 
Q 2591 2978 2328 3040 
Q 2066 3103 1784 3103 
Q 1356 3103 1142 2972 
Q 928 2841 928 2578 
Q 928 2378 1081 2264 
Q 1234 2150 1697 2047 
L 1894 2003 
Q 2506 1872 2764 1633 
Q 3022 1394 3022 966 
Q 3022 478 2636 193 
Q 2250 -91 1575 -91 
Q 1294 -91 989 -36 
Q 684 19 347 128 
L 347 722 
Q 666 556 975 473 
Q 1284 391 1588 391 
Q 1994 391 2212 530 
Q 2431 669 2431 922 
Q 2431 1156 2273 1281 
Q 2116 1406 1581 1522 
L 1381 1569 
Q 847 1681 609 1914 
Q 372 2147 372 2553 
Q 372 3047 722 3315 
Q 1072 3584 1716 3584 
Q 2034 3584 2315 3537 
Q 2597 3491 2834 3397 
z
" transform="scale(0.015625)"/>
      </defs>
      <use xlink:href="#DejaVuSans-49"/>
      <use xlink:href="#DejaVuSans-6e" x="29.492188"/>
      <use xlink:href="#DejaVuSans-66" x="92.871094"/>
      <use xlink:href="#DejaVuSans-6f" x="128.076172"/>
      <use xlink:href="#DejaVuSans-72" x="189.257812"/>
      <use xlink:href="#DejaVuSans-6d" x="228.621094"/>
      <use xlink:href="#DejaVuSans-61" x="326.033203"/>
      <use xlink:href="#DejaVuSans-74" x="387.3125"/>
      <use xlink:href="#DejaVuSans-69" x="426.521484"/>
      <use xlink:href="#DejaVuSans-76" x="454.304688"/>
      <use xlink:href="#DejaVuSans-65" x="513.484375"/>
      <use xlink:href="#DejaVuSans-20" x="575.007812"/>
      <use xlink:href="#DejaVuSans-54" x="606.794922"/>
      <use xlink:href="#DejaVuSans-72" x="653.128906"/>
      <use xlink:href="#DejaVuSans-69" x="694.242188"/>
      <use xlink:href="#DejaVuSans-61" x="722.025391"/>
      <use xlink:href="#DejaVuSans-6c" x="783.304688"/>
      <use xlink:href="#DejaVuSans-73" x="811.087891"/>
     </g>
    </g>
   </g>
   <g id="matplotlib.axis_2">
    <g id="ytick_1">
     <g id="line2d_4">
      <defs>
       <path id="md479b10d7c" d="M 0 0 
L -3.5 0 
" style="stroke: #666666; stroke-width: 0.8"/>
      </defs>
      <g>
       <use xlink:href="#md479b10d7c" x="39.15" y="41.878496" style="fill: #666666; stroke: #666666; stroke-width: 0.8"/>
      </g>
     </g>
     <g id="text_2">
      <!-- x1 -->
      <g style="fill: #666666" transform="translate(24.78125 44.158028)scale(0.06 -0.06)">
       <defs>
        <path id="DejaVuSans-78" d="M 3513 3500 
L 2247 1797 
L 3578 0 
L 2900 0 
L 1881 1375 
L 863 0 
L 184 0 
L 1544 1831 
L 300 3500 
L 978 3500 
L 1906 2253 
L 2834 3500 
L 3513 3500 
z
" transform="scale(0.015625)"/>
        <path id="DejaVuSans-31" d="M 794 531 
L 1825 531 
L 1825 4091 
L 703 3866 
L 703 4441 
L 1819 4666 
L 2450 4666 
L 2450 531 
L 3481 531 
L 3481 0 
L 794 0 
L 794 531 
z
" transform="scale(0.015625)"/>
       </defs>
       <use xlink:href="#DejaVuSans-78"/>
       <use xlink:href="#DejaVuSans-31" x="59.179688"/>
      </g>
     </g>
    </g>
    <g id="ytick_2">
     <g id="line2d_5">
      <g>
       <use xlink:href="#md479b10d7c" x="39.15" y="51.786638" style="fill: #666666; stroke: #666666; stroke-width: 0.8"/>
      </g>
     </g>
     <g id="text_3">
      <!-- x1/4 -->
      <g style="fill: #666666" transform="translate(18.9425 54.06617)scale(0.06 -0.06)">
       <defs>
        <path id="DejaVuSans-2f" d="M 1625 4666 
L 2156 4666 
L 531 -594 
L 0 -594 
L 1625 4666 
z
" transform="scale(0.015625)"/>
        <path id="DejaVuSans-34" d="M 2419 4116 
L 825 1625 
L 2419 1625 
L 2419 4116 
z
M 2253 4666 
L 3047 4666 
L 3047 1625 
L 3713 1625 
L 3713 1100 
L 3047 1100 
L 3047 0 
L 2419 0 
L 2419 1100 
L 313 1100 
L 313 1709 
L 2253 4666 
z
" transform="scale(0.015625)"/>
       </defs>
       <use xlink:href="#DejaVuSans-78"/>
       <use xlink:href="#DejaVuSans-31" x="59.179688"/>
       <use xlink:href="#DejaVuSans-2f" x="122.802734"/>
       <use xlink:href="#DejaVuSans-34" x="156.494141"/>
      </g>
     </g>
    </g>
    <g id="ytick_3">
     <g id="line2d_6">
      <g>
       <use xlink:href="#md479b10d7c" x="39.15" y="31.970355" style="fill: #666666; stroke: #666666; stroke-width: 0.8"/>
      </g>
     </g>
     <g id="text_4">
      <!-- x4 -->
      <g style="fill: #666666" transform="translate(24.78125 34.249886)scale(0.06 -0.06)">
       <use xlink:href="#DejaVuSans-78"/>
       <use xlink:href="#DejaVuSans-34" x="59.179688"/>
      </g>
     </g>
    </g>
    <g id="ytick_4">
     <g id="line2d_7">
      <g>
       <use xlink:href="#md479b10d7c" x="39.15" y="22.062213" style="fill: #666666; stroke: #666666; stroke-width: 0.8"/>
      </g>
     </g>
     <g id="text_5">
      <!-- x16 -->
      <g style="fill: #666666" transform="translate(20.96375 24.341744)scale(0.06 -0.06)">
       <defs>
        <path id="DejaVuSans-36" d="M 2113 2584 
Q 1688 2584 1439 2293 
Q 1191 2003 1191 1497 
Q 1191 994 1439 701 
Q 1688 409 2113 409 
Q 2538 409 2786 701 
Q 3034 994 3034 1497 
Q 3034 2003 2786 2293 
Q 2538 2584 2113 2584 
z
M 3366 4563 
L 3366 3988 
Q 3128 4100 2886 4159 
Q 2644 4219 2406 4219 
Q 1781 4219 1451 3797 
Q 1122 3375 1075 2522 
Q 1259 2794 1537 2939 
Q 1816 3084 2150 3084 
Q 2853 3084 3261 2657 
Q 3669 2231 3669 1497 
Q 3669 778 3244 343 
Q 2819 -91 2113 -91 
Q 1303 -91 875 529 
Q 447 1150 447 2328 
Q 447 3434 972 4092 
Q 1497 4750 2381 4750 
Q 2619 4750 2861 4703 
Q 3103 4656 3366 4563 
z
" transform="scale(0.015625)"/>
       </defs>
       <use xlink:href="#DejaVuSans-78"/>
       <use xlink:href="#DejaVuSans-31" x="59.179688"/>
       <use xlink:href="#DejaVuSans-36" x="122.802734"/>
      </g>
     </g>
    </g>
    <g id="ytick_5">
     <g id="line2d_8">
      <g>
       <use xlink:href="#md479b10d7c" x="39.15" y="12.154071" style="fill: #666666; stroke: #666666; stroke-width: 0.8"/>
      </g>
     </g>
     <g id="text_6">
      <!-- x64 -->
      <g style="fill: #666666" transform="translate(20.96375 14.433602)scale(0.06 -0.06)">
       <use xlink:href="#DejaVuSans-78"/>
       <use xlink:href="#DejaVuSans-36" x="59.179688"/>
       <use xlink:href="#DejaVuSans-34" x="122.802734"/>
      </g>
     </g>
    </g>
    <g id="text_7">
     <!-- $OR^{\dagger}$ -->
     <g style="fill: #666666" transform="translate(13.27875 37.213319)rotate(-90)scale(0.08 -0.08)">
      <defs>
       <path id="DejaVuSans-Oblique-4f" d="M 2919 4238 
Q 2400 4238 2003 3986 
Q 1606 3734 1313 3219 
Q 1125 2891 1026 2522 
Q 928 2153 928 1778 
Q 928 1128 1239 775 
Q 1550 422 2119 422 
Q 2631 422 3032 676 
Q 3434 931 3719 1434 
Q 3909 1772 4009 2142 
Q 4109 2513 4109 2881 
Q 4109 3528 3796 3883 
Q 3484 4238 2919 4238 
z
M 2100 -91 
Q 1241 -91 748 418 
Q 256 928 256 1813 
Q 256 2319 448 2847 
Q 641 3375 978 3788 
Q 1375 4272 1862 4511 
Q 2350 4750 2938 4750 
Q 3794 4750 4287 4245 
Q 4781 3741 4781 2869 
Q 4781 2331 4593 1812 
Q 4406 1294 4056 872 
Q 3656 384 3173 146 
Q 2691 -91 2100 -91 
z
" transform="scale(0.015625)"/>
       <path id="DejaVuSans-Oblique-52" d="M 1613 4147 
L 1294 2491 
L 2106 2491 
Q 2584 2491 2879 2755 
Q 3175 3019 3175 3444 
Q 3175 3784 2976 3965 
Q 2778 4147 2406 4147 
L 1613 4147 
z
M 2772 2241 
Q 2972 2194 3105 2009 
Q 3238 1825 3413 1275 
L 3809 0 
L 3144 0 
L 2778 1197 
Q 2638 1659 2453 1815 
Q 2269 1972 1888 1972 
L 1191 1972 
L 806 0 
L 172 0 
L 1081 4666 
L 2503 4666 
Q 3150 4666 3495 4373 
Q 3841 4081 3841 3531 
Q 3841 3044 3547 2687 
Q 3253 2331 2772 2241 
z
" transform="scale(0.015625)"/>
       <path id="DejaVuSans-2020" d="M 1325 4666 
L 1875 4666 
L 1875 3353 
L 3022 3353 
L 3022 2875 
L 1875 2875 
L 1875 -616 
L 1325 -616 
L 1325 2875 
L 178 2875 
L 178 3353 
L 1325 3353 
L 1325 4666 
z
" transform="scale(0.015625)"/>
      </defs>
      <use xlink:href="#DejaVuSans-Oblique-4f" transform="translate(0 0.684375)"/>
      <use xlink:href="#DejaVuSans-Oblique-52" transform="translate(78.710938 0.684375)"/>
      <use xlink:href="#DejaVuSans-2020" transform="translate(155.21013 38.965625)scale(0.7)"/>
     </g>
    </g>
   </g>
   <g id="line2d_9">
    <path d="M 39.15 44.545449 
L 55.005537 36.735955 
L 70.861075 38.971868 
L 86.716612 35.036693 
L 102.57215 33.593643 
L 118.427687 27.940439 
L 134.283225 30.078202 
L 150.138762 31.045267 
L 165.9943 29.103663 
L 181.849837 23.257019 
L 197.705375 26.71248 
L 213.560912 30.166429 
" clip-path="url(#p8312060863)" style="fill: none; stroke: #19b382; stroke-width: 1.5; stroke-linecap: square"/>
   </g>
   <g id="line2d_10">
    <path d="M 39.15 35.149198 
L 55.005537 27.008003 
L 70.861075 21.851132 
L 86.716612 17.699801 
L 102.57215 23.826775 
L 118.427687 16.984472 
L 134.283225 20.462438 
L 150.138762 17.708396 
L 165.9943 14.400918 
L 181.849837 18.377926 
L 197.705375 16.448632 
L 213.560912 19.615522 
" clip-path="url(#p8312060863)" style="fill: none; stroke-dasharray: 5.55,2.4; stroke-dashoffset: 0; stroke: #e6438c; stroke-width: 1.5"/>
   </g>
   <g id="patch_3">
    <path d="M 39.15 51.786638 
L 39.15 7.2 
" style="fill: none; stroke: #666666; stroke-width: 0.8; stroke-linejoin: miter; stroke-linecap: square"/>
   </g>
   <g id="legend_1">
    <g id="patch_4">
     <path d="M 141.10475 47.2275 
L 193.505375 47.2275 
Q 194.705375 47.2275 194.705375 46.0275 
L 194.705375 11.4 
Q 194.705375 10.2 193.505375 10.2 
L 141.10475 10.2 
Q 139.90475 10.2 139.90475 11.4 
L 139.90475 46.0275 
Q 139.90475 47.2275 141.10475 47.2275 
z
" style="fill: #ffffff; opacity: 0.8; stroke: #666666; stroke-linejoin: miter"/>
    </g>
    <g id="patch_5">
     <path d="M 142.30475 17.159063 
L 154.30475 17.159063 
L 154.30475 12.959063 
L 142.30475 12.959063 
z
" style="fill: #19b382; fill-opacity: 0.2"/>
    </g>
    <g id="text_8">
     <!-- NCM -->
     <g style="fill: #666666" transform="translate(159.10475 17.159063)scale(0.06 -0.06)">
      <defs>
       <path id="DejaVuSans-4e" d="M 628 4666 
L 1478 4666 
L 3547 763 
L 3547 4666 
L 4159 4666 
L 4159 0 
L 3309 0 
L 1241 3903 
L 1241 0 
L 628 0 
L 628 4666 
z
" transform="scale(0.015625)"/>
       <path id="DejaVuSans-43" d="M 4122 4306 
L 4122 3641 
Q 3803 3938 3442 4084 
Q 3081 4231 2675 4231 
Q 1875 4231 1450 3742 
Q 1025 3253 1025 2328 
Q 1025 1406 1450 917 
Q 1875 428 2675 428 
Q 3081 428 3442 575 
Q 3803 722 4122 1019 
L 4122 359 
Q 3791 134 3420 21 
Q 3050 -91 2638 -91 
Q 1578 -91 968 557 
Q 359 1206 359 2328 
Q 359 3453 968 4101 
Q 1578 4750 2638 4750 
Q 3056 4750 3426 4639 
Q 3797 4528 4122 4306 
z
" transform="scale(0.015625)"/>
       <path id="DejaVuSans-4d" d="M 628 4666 
L 1569 4666 
L 2759 1491 
L 3956 4666 
L 4897 4666 
L 4897 0 
L 4281 0 
L 4281 4097 
L 3078 897 
L 2444 897 
L 1241 4097 
L 1241 0 
L 628 0 
L 628 4666 
z
" transform="scale(0.015625)"/>
      </defs>
      <use xlink:href="#DejaVuSans-4e"/>
      <use xlink:href="#DejaVuSans-43" x="74.804688"/>
      <use xlink:href="#DejaVuSans-4d" x="144.628906"/>
     </g>
    </g>
    <g id="line2d_11">
     <path d="M 142.30475 23.865938 
L 148.30475 23.865938 
L 154.30475 23.865938 
" style="fill: none; stroke: #19b382; stroke-width: 1.5; stroke-linecap: square"/>
    </g>
    <g id="patch_6">
     <path d="M 142.30475 34.772813 
L 154.30475 34.772813 
L 154.30475 30.572813 
L 142.30475 30.572813 
z
" style="fill: #777777; fill-opacity: 0.2"/>
    </g>
    <g id="text_9">
     <!-- HVC+CTRL -->
     <g style="fill: #666666" transform="translate(159.10475 34.772813)scale(0.06 -0.06)">
      <defs>
       <path id="DejaVuSans-48" d="M 628 4666 
L 1259 4666 
L 1259 2753 
L 3553 2753 
L 3553 4666 
L 4184 4666 
L 4184 0 
L 3553 0 
L 3553 2222 
L 1259 2222 
L 1259 0 
L 628 0 
L 628 4666 
z
" transform="scale(0.015625)"/>
       <path id="DejaVuSans-56" d="M 1831 0 
L 50 4666 
L 709 4666 
L 2188 738 
L 3669 4666 
L 4325 4666 
L 2547 0 
L 1831 0 
z
" transform="scale(0.015625)"/>
       <path id="DejaVuSans-2b" d="M 2944 4013 
L 2944 2272 
L 4684 2272 
L 4684 1741 
L 2944 1741 
L 2944 0 
L 2419 0 
L 2419 1741 
L 678 1741 
L 678 2272 
L 2419 2272 
L 2419 4013 
L 2944 4013 
z
" transform="scale(0.015625)"/>
       <path id="DejaVuSans-52" d="M 2841 2188 
Q 3044 2119 3236 1894 
Q 3428 1669 3622 1275 
L 4263 0 
L 3584 0 
L 2988 1197 
Q 2756 1666 2539 1819 
Q 2322 1972 1947 1972 
L 1259 1972 
L 1259 0 
L 628 0 
L 628 4666 
L 2053 4666 
Q 2853 4666 3247 4331 
Q 3641 3997 3641 3322 
Q 3641 2881 3436 2590 
Q 3231 2300 2841 2188 
z
M 1259 4147 
L 1259 2491 
L 2053 2491 
Q 2509 2491 2742 2702 
Q 2975 2913 2975 3322 
Q 2975 3731 2742 3939 
Q 2509 4147 2053 4147 
L 1259 4147 
z
" transform="scale(0.015625)"/>
       <path id="DejaVuSans-4c" d="M 628 4666 
L 1259 4666 
L 1259 531 
L 3531 531 
L 3531 0 
L 628 0 
L 628 4666 
z
" transform="scale(0.015625)"/>
      </defs>
      <use xlink:href="#DejaVuSans-48"/>
      <use xlink:href="#DejaVuSans-56" x="75.195312"/>
      <use xlink:href="#DejaVuSans-43" x="143.603516"/>
      <use xlink:href="#DejaVuSans-2b" x="213.427734"/>
      <use xlink:href="#DejaVuSans-43" x="297.216797"/>
      <use xlink:href="#DejaVuSans-54" x="367.041016"/>
      <use xlink:href="#DejaVuSans-52" x="428.125"/>
      <use xlink:href="#DejaVuSans-4c" x="497.607422"/>
     </g>
    </g>
    <g id="line2d_12">
     <path d="M 142.30475 41.479688 
L 148.30475 41.479688 
L 154.30475 41.479688 
" style="fill: none; stroke-dasharray: 5.55,2.4; stroke-dashoffset: 0; stroke: #e6438c; stroke-width: 1.5"/>
    </g>
   </g>
  </g>
  <g id="axes_2">
   <g id="patch_7">
    <path d="M 39.15 114.207932 
L 197.705375 114.207932 
L 197.705375 69.621294 
L 39.15 69.621294 
z
" style="fill: #ffffff"/>
   </g>
   <g id="PolyCollection_3">
    <path d="M 39.15 106.21876 
L 39.15 110.678672 
L 55.005537 108.094843 
L 70.861075 105.176974 
L 86.716612 111.111909 
L 102.57215 100.202302 
L 118.427687 103.334965 
L 134.283225 101.962316 
L 150.138762 102.11064 
L 165.9943 99.933855 
L 181.849837 99.379459 
L 197.705375 98.903236 
L 213.560912 101.566325 
L 213.560912 89.995186 
L 213.560912 89.995186 
L 197.705375 94.06657 
L 181.849837 91.610377 
L 165.9943 84.65374 
L 150.138762 91.123355 
L 134.283225 96.523454 
L 118.427687 90.18501 
L 102.57215 95.156621 
L 86.716612 100.006312 
L 70.861075 98.142053 
L 55.005537 100.10808 
L 39.15 106.21876 
z
" clip-path="url(#p18d39ec4b7)" style="fill: #19b382; fill-opacity: 0.2"/>
   </g>
   <g id="PolyCollection_4">
    <path d="M 39.15 105.216449 
L 39.15 110.054998 
L 55.005537 104.858665 
L 70.861075 102.96148 
L 86.716612 100.941465 
L 102.57215 100.394243 
L 118.427687 98.938268 
L 134.283225 97.787029 
L 150.138762 97.537509 
L 165.9943 101.951611 
L 181.849837 98.868314 
L 197.705375 96.652343 
L 213.560912 95.555721 
L 213.560912 87.782817 
L 213.560912 87.782817 
L 197.705375 90.252043 
L 181.849837 95.443856 
L 165.9943 94.811009 
L 150.138762 90.73665 
L 134.283225 91.575305 
L 118.427687 93.71485 
L 102.57215 90.101178 
L 86.716612 89.208779 
L 70.861075 96.33406 
L 55.005537 98.192003 
L 39.15 105.216449 
z
" clip-path="url(#p18d39ec4b7)" style="fill: #777777; fill-opacity: 0.2"/>
   </g>
   <g id="LineCollection_2">
    <path d="M 39.15 104.29979 
L 197.705375 104.29979 
" clip-path="url(#p18d39ec4b7)" style="fill: none; stroke-dasharray: 1.85,0.8; stroke-dashoffset: 0; stroke: #666666; stroke-width: 0.5"/>
   </g>
   <g id="matplotlib.axis_3">
    <g id="xtick_4">
     <g id="line2d_13">
      <g>
       <use xlink:href="#m8dc194a706" x="39.15" y="114.207932" style="fill: #666666; stroke: #666666; stroke-width: 0.8"/>
      </g>
     </g>
     <g id="text_10">
      <!-- 0 -->
      <g style="fill: #666666" transform="translate(37.24125 125.766994)scale(0.06 -0.06)">
       <defs>
        <path id="DejaVuSans-30" d="M 2034 4250 
Q 1547 4250 1301 3770 
Q 1056 3291 1056 2328 
Q 1056 1369 1301 889 
Q 1547 409 2034 409 
Q 2525 409 2770 889 
Q 3016 1369 3016 2328 
Q 3016 3291 2770 3770 
Q 2525 4250 2034 4250 
z
M 2034 4750 
Q 2819 4750 3233 4129 
Q 3647 3509 3647 2328 
Q 3647 1150 3233 529 
Q 2819 -91 2034 -91 
Q 1250 -91 836 529 
Q 422 1150 422 2328 
Q 422 3509 836 4129 
Q 1250 4750 2034 4750 
z
" transform="scale(0.015625)"/>
       </defs>
       <use xlink:href="#DejaVuSans-30"/>
      </g>
     </g>
    </g>
    <g id="xtick_5">
     <g id="line2d_14">
      <g>
       <use xlink:href="#m8dc194a706" x="118.427687" y="114.207932" style="fill: #666666; stroke: #666666; stroke-width: 0.8"/>
      </g>
     </g>
    </g>
    <g id="xtick_6">
     <g id="line2d_15">
      <g>
       <use xlink:href="#m8dc194a706" x="197.705375" y="114.207932" style="fill: #666666; stroke: #666666; stroke-width: 0.8"/>
      </g>
     </g>
     <g id="text_11">
      <!-- 10 -->
      <g style="fill: #666666" transform="translate(193.887875 125.766994)scale(0.06 -0.06)">
       <use xlink:href="#DejaVuSans-31"/>
       <use xlink:href="#DejaVuSans-30" x="63.623047"/>
      </g>
     </g>
    </g>
    <g id="text_12">
     <!-- Informative Trials -->
     <g style="fill: #666666" transform="translate(75.269094 138.613244)scale(0.1 -0.1)">
      <use xlink:href="#DejaVuSans-49"/>
      <use xlink:href="#DejaVuSans-6e" x="29.492188"/>
      <use xlink:href="#DejaVuSans-66" x="92.871094"/>
      <use xlink:href="#DejaVuSans-6f" x="128.076172"/>
      <use xlink:href="#DejaVuSans-72" x="189.257812"/>
      <use xlink:href="#DejaVuSans-6d" x="228.621094"/>
      <use xlink:href="#DejaVuSans-61" x="326.033203"/>
      <use xlink:href="#DejaVuSans-74" x="387.3125"/>
      <use xlink:href="#DejaVuSans-69" x="426.521484"/>
      <use xlink:href="#DejaVuSans-76" x="454.304688"/>
      <use xlink:href="#DejaVuSans-65" x="513.484375"/>
      <use xlink:href="#DejaVuSans-20" x="575.007812"/>
      <use xlink:href="#DejaVuSans-54" x="606.794922"/>
      <use xlink:href="#DejaVuSans-72" x="653.128906"/>
      <use xlink:href="#DejaVuSans-69" x="694.242188"/>
      <use xlink:href="#DejaVuSans-61" x="722.025391"/>
      <use xlink:href="#DejaVuSans-6c" x="783.304688"/>
      <use xlink:href="#DejaVuSans-73" x="811.087891"/>
     </g>
    </g>
   </g>
   <g id="matplotlib.axis_4">
    <g id="ytick_6">
     <g id="line2d_16">
      <g>
       <use xlink:href="#md479b10d7c" x="39.15" y="104.29979" style="fill: #666666; stroke: #666666; stroke-width: 0.8"/>
      </g>
     </g>
     <g id="text_13">
      <!-- x1 -->
      <g style="fill: #666666" transform="translate(24.78125 106.579321)scale(0.06 -0.06)">
       <use xlink:href="#DejaVuSans-78"/>
       <use xlink:href="#DejaVuSans-31" x="59.179688"/>
      </g>
     </g>
    </g>
    <g id="ytick_7">
     <g id="line2d_17">
      <g>
       <use xlink:href="#md479b10d7c" x="39.15" y="114.207932" style="fill: #666666; stroke: #666666; stroke-width: 0.8"/>
      </g>
     </g>
     <g id="text_14">
      <!-- x1/4 -->
      <g style="fill: #666666" transform="translate(18.9425 116.487463)scale(0.06 -0.06)">
       <use xlink:href="#DejaVuSans-78"/>
       <use xlink:href="#DejaVuSans-31" x="59.179688"/>
       <use xlink:href="#DejaVuSans-2f" x="122.802734"/>
       <use xlink:href="#DejaVuSans-34" x="156.494141"/>
      </g>
     </g>
    </g>
    <g id="ytick_8">
     <g id="line2d_18">
      <g>
       <use xlink:href="#md479b10d7c" x="39.15" y="94.391648" style="fill: #666666; stroke: #666666; stroke-width: 0.8"/>
      </g>
     </g>
     <g id="text_15">
      <!-- x4 -->
      <g style="fill: #666666" transform="translate(24.78125 96.671179)scale(0.06 -0.06)">
       <use xlink:href="#DejaVuSans-78"/>
       <use xlink:href="#DejaVuSans-34" x="59.179688"/>
      </g>
     </g>
    </g>
    <g id="ytick_9">
     <g id="line2d_19">
      <g>
       <use xlink:href="#md479b10d7c" x="39.15" y="84.483506" style="fill: #666666; stroke: #666666; stroke-width: 0.8"/>
      </g>
     </g>
     <g id="text_16">
      <!-- x16 -->
      <g style="fill: #666666" transform="translate(20.96375 86.763038)scale(0.06 -0.06)">
       <use xlink:href="#DejaVuSans-78"/>
       <use xlink:href="#DejaVuSans-31" x="59.179688"/>
       <use xlink:href="#DejaVuSans-36" x="122.802734"/>
      </g>
     </g>
    </g>
    <g id="ytick_10">
     <g id="line2d_20">
      <g>
       <use xlink:href="#md479b10d7c" x="39.15" y="74.575364" style="fill: #666666; stroke: #666666; stroke-width: 0.8"/>
      </g>
     </g>
     <g id="text_17">
      <!-- x64 -->
      <g style="fill: #666666" transform="translate(20.96375 76.854896)scale(0.06 -0.06)">
       <use xlink:href="#DejaVuSans-78"/>
       <use xlink:href="#DejaVuSans-36" x="59.179688"/>
       <use xlink:href="#DejaVuSans-34" x="122.802734"/>
      </g>
     </g>
    </g>
    <g id="text_18">
     <!-- $OR^{\dagger}$ -->
     <g style="fill: #666666" transform="translate(13.27875 99.634613)rotate(-90)scale(0.08 -0.08)">
      <use xlink:href="#DejaVuSans-Oblique-4f" transform="translate(0 0.684375)"/>
      <use xlink:href="#DejaVuSans-Oblique-52" transform="translate(78.710938 0.684375)"/>
      <use xlink:href="#DejaVuSans-2020" transform="translate(155.21013 38.965625)scale(0.7)"/>
     </g>
    </g>
   </g>
   <g id="line2d_21">
    <path d="M 39.15 108.448716 
L 55.005537 104.101462 
L 70.861075 101.659513 
L 86.716612 105.55911 
L 102.57215 97.679462 
L 118.427687 96.759987 
L 134.283225 99.242885 
L 150.138762 96.616997 
L 165.9943 92.293798 
L 181.849837 95.494918 
L 197.705375 96.484903 
L 213.560912 95.780755 
" clip-path="url(#p18d39ec4b7)" style="fill: none; stroke: #19b382; stroke-width: 1.5; stroke-linecap: square"/>
   </g>
   <g id="line2d_22">
    <path d="M 39.15 107.635724 
L 55.005537 101.525334 
L 70.861075 99.64777 
L 86.716612 95.075122 
L 102.57215 95.24771 
L 118.427687 96.326559 
L 134.283225 94.681167 
L 150.138762 94.137079 
L 165.9943 98.38131 
L 181.849837 97.156085 
L 197.705375 93.452193 
L 213.560912 91.669269 
" clip-path="url(#p18d39ec4b7)" style="fill: none; stroke-dasharray: 5.55,2.4; stroke-dashoffset: 0; stroke: #e6438c; stroke-width: 1.5"/>
   </g>
   <g id="patch_8">
    <path d="M 39.15 114.207932 
L 39.15 69.621294 
" style="fill: none; stroke: #666666; stroke-width: 0.8; stroke-linejoin: miter; stroke-linecap: square"/>
   </g>
   <g id="legend_2">
    <g id="patch_9">
     <path d="M 141.10475 109.648794 
L 193.505375 109.648794 
Q 194.705375 109.648794 194.705375 108.448794 
L 194.705375 73.821294 
Q 194.705375 72.621294 193.505375 72.621294 
L 141.10475 72.621294 
Q 139.90475 72.621294 139.90475 73.821294 
L 139.90475 108.448794 
Q 139.90475 109.648794 141.10475 109.648794 
z
" style="fill: #ffffff; opacity: 0.8; stroke: #666666; stroke-linejoin: miter"/>
    </g>
    <g id="patch_10">
     <path d="M 142.30475 79.580356 
L 154.30475 79.580356 
L 154.30475 75.380356 
L 142.30475 75.380356 
z
" style="fill: #19b382; fill-opacity: 0.2"/>
    </g>
    <g id="text_19">
     <!-- NCM -->
     <g style="fill: #666666" transform="translate(159.10475 79.580356)scale(0.06 -0.06)">
      <use xlink:href="#DejaVuSans-4e"/>
      <use xlink:href="#DejaVuSans-43" x="74.804688"/>
      <use xlink:href="#DejaVuSans-4d" x="144.628906"/>
     </g>
    </g>
    <g id="line2d_23">
     <path d="M 142.30475 86.287231 
L 148.30475 86.287231 
L 154.30475 86.287231 
" style="fill: none; stroke: #19b382; stroke-width: 1.5; stroke-linecap: square"/>
    </g>
    <g id="patch_11">
     <path d="M 142.30475 97.194106 
L 154.30475 97.194106 
L 154.30475 92.994106 
L 142.30475 92.994106 
z
" style="fill: #777777; fill-opacity: 0.2"/>
    </g>
    <g id="text_20">
     <!-- HVC+CTRL -->
     <g style="fill: #666666" transform="translate(159.10475 97.194106)scale(0.06 -0.06)">
      <use xlink:href="#DejaVuSans-48"/>
      <use xlink:href="#DejaVuSans-56" x="75.195312"/>
      <use xlink:href="#DejaVuSans-43" x="143.603516"/>
      <use xlink:href="#DejaVuSans-2b" x="213.427734"/>
      <use xlink:href="#DejaVuSans-43" x="297.216797"/>
      <use xlink:href="#DejaVuSans-54" x="367.041016"/>
      <use xlink:href="#DejaVuSans-52" x="428.125"/>
      <use xlink:href="#DejaVuSans-4c" x="497.607422"/>
     </g>
    </g>
    <g id="line2d_24">
     <path d="M 142.30475 103.900981 
L 148.30475 103.900981 
L 154.30475 103.900981 
" style="fill: none; stroke-dasharray: 5.55,2.4; stroke-dashoffset: 0; stroke: #e6438c; stroke-width: 1.5"/>
    </g>
   </g>
  </g>
  <g id="axes_3">
   <g id="patch_12">
    <path d="M 245.271987 114.207932 
L 403.827362 114.207932 
L 403.827362 7.2 
L 245.271987 7.2 
z
" style="fill: #ffffff"/>
   </g>
   <g id="PolyCollection_5">
    <path d="M 245.271987 35.456205 
L 245.271987 61.022047 
L 261.127525 47.143333 
L 276.983062 40.53064 
L 292.8386 37.629839 
L 308.694137 66.505816 
L 324.549675 65.54816 
L 340.405212 62.095504 
L 356.26075 50.262941 
L 372.116287 51.536949 
L 387.971825 79.01878 
L 403.827362 67.400847 
L 419.6829 60.228858 
L 419.6829 34.663016 
L 419.6829 34.663016 
L 403.827362 41.835005 
L 387.971825 53.452938 
L 372.116287 25.971106 
L 356.26075 24.697098 
L 340.405212 36.529662 
L 324.549675 39.982317 
L 308.694137 40.939974 
L 292.8386 12.063997 
L 276.983062 14.964797 
L 261.127525 21.577491 
L 245.271987 35.456205 
z
" clip-path="url(#p8950c725ef)" style="fill: #ff8040; fill-opacity: 0.2"/>
   </g>
   <g id="PolyCollection_6">
    <path d="M 245.271987 58.469397 
L 245.271987 84.035239 
L 261.127525 77.565256 
L 276.983062 79.659927 
L 292.8386 57.262482 
L 308.694137 79.788651 
L 324.549675 88.699444 
L 340.405212 62.277524 
L 356.26075 80.304477 
L 372.116287 109.343935 
L 387.971825 100.650377 
L 403.827362 71.258971 
L 419.6829 74.978498 
L 419.6829 49.412656 
L 419.6829 49.412656 
L 403.827362 45.693128 
L 387.971825 75.084535 
L 372.116287 83.778092 
L 356.26075 54.738635 
L 340.405212 36.711682 
L 324.549675 63.133601 
L 308.694137 54.222808 
L 292.8386 31.696639 
L 276.983062 54.094084 
L 261.127525 51.999413 
L 245.271987 58.469397 
z
" clip-path="url(#p8950c725ef)" style="fill: #ffbf40; fill-opacity: 0.2"/>
   </g>
   <g id="matplotlib.axis_5">
    <g id="xtick_7">
     <g id="line2d_25">
      <g>
       <use xlink:href="#m8dc194a706" x="245.271987" y="114.207932" style="fill: #666666; stroke: #666666; stroke-width: 0.8"/>
      </g>
     </g>
     <g id="text_21">
      <!-- 0 -->
      <g style="fill: #666666" transform="translate(243.363237 125.766994)scale(0.06 -0.06)">
       <use xlink:href="#DejaVuSans-30"/>
      </g>
     </g>
    </g>
    <g id="xtick_8">
     <g id="line2d_26">
      <g>
       <use xlink:href="#m8dc194a706" x="324.549675" y="114.207932" style="fill: #666666; stroke: #666666; stroke-width: 0.8"/>
      </g>
     </g>
    </g>
    <g id="xtick_9">
     <g id="line2d_27">
      <g>
       <use xlink:href="#m8dc194a706" x="403.827362" y="114.207932" style="fill: #666666; stroke: #666666; stroke-width: 0.8"/>
      </g>
     </g>
     <g id="text_22">
      <!-- 10 -->
      <g style="fill: #666666" transform="translate(400.009862 125.766994)scale(0.06 -0.06)">
       <use xlink:href="#DejaVuSans-31"/>
       <use xlink:href="#DejaVuSans-30" x="63.623047"/>
      </g>
     </g>
    </g>
    <g id="text_23">
     <!-- Informative Trials -->
     <g style="fill: #666666" transform="translate(281.391081 138.613244)scale(0.1 -0.1)">
      <use xlink:href="#DejaVuSans-49"/>
      <use xlink:href="#DejaVuSans-6e" x="29.492188"/>
      <use xlink:href="#DejaVuSans-66" x="92.871094"/>
      <use xlink:href="#DejaVuSans-6f" x="128.076172"/>
      <use xlink:href="#DejaVuSans-72" x="189.257812"/>
      <use xlink:href="#DejaVuSans-6d" x="228.621094"/>
      <use xlink:href="#DejaVuSans-61" x="326.033203"/>
      <use xlink:href="#DejaVuSans-74" x="387.3125"/>
      <use xlink:href="#DejaVuSans-69" x="426.521484"/>
      <use xlink:href="#DejaVuSans-76" x="454.304688"/>
      <use xlink:href="#DejaVuSans-65" x="513.484375"/>
      <use xlink:href="#DejaVuSans-20" x="575.007812"/>
      <use xlink:href="#DejaVuSans-54" x="606.794922"/>
      <use xlink:href="#DejaVuSans-72" x="653.128906"/>
      <use xlink:href="#DejaVuSans-69" x="694.242188"/>
      <use xlink:href="#DejaVuSans-61" x="722.025391"/>
      <use xlink:href="#DejaVuSans-6c" x="783.304688"/>
      <use xlink:href="#DejaVuSans-73" x="811.087891"/>
     </g>
    </g>
   </g>
   <g id="matplotlib.axis_6">
    <g id="ytick_11">
     <g id="line2d_28">
      <g>
       <use xlink:href="#md479b10d7c" x="245.271987" y="77.538077" style="fill: #666666; stroke: #666666; stroke-width: 0.8"/>
      </g>
     </g>
     <g id="text_24">
      <!-- 0 -->
      <g style="fill: #666666" transform="translate(231.909487 81.337296)scale(0.1 -0.1)">
       <use xlink:href="#DejaVuSans-30"/>
      </g>
     </g>
    </g>
    <g id="ytick_12">
     <g id="line2d_29">
      <g>
       <use xlink:href="#md479b10d7c" x="245.271987" y="36.116679" style="fill: #666666; stroke: #666666; stroke-width: 0.8"/>
      </g>
     </g>
     <g id="text_25">
      <!-- 2 -->
      <g style="fill: #666666" transform="translate(231.909487 39.915897)scale(0.1 -0.1)">
       <defs>
        <path id="DejaVuSans-32" d="M 1228 531 
L 3431 531 
L 3431 0 
L 469 0 
L 469 531 
Q 828 903 1448 1529 
Q 2069 2156 2228 2338 
Q 2531 2678 2651 2914 
Q 2772 3150 2772 3378 
Q 2772 3750 2511 3984 
Q 2250 4219 1831 4219 
Q 1534 4219 1204 4116 
Q 875 4013 500 3803 
L 500 4441 
Q 881 4594 1212 4672 
Q 1544 4750 1819 4750 
Q 2544 4750 2975 4387 
Q 3406 4025 3406 3419 
Q 3406 3131 3298 2873 
Q 3191 2616 2906 2266 
Q 2828 2175 2409 1742 
Q 1991 1309 1228 531 
z
" transform="scale(0.015625)"/>
       </defs>
       <use xlink:href="#DejaVuSans-32"/>
      </g>
     </g>
    </g>
    <g id="text_26">
     <!-- Effect Size -->
     <g style="fill: #666666" transform="translate(225.8298 87.022716)rotate(-90)scale(0.1 -0.1)">
      <defs>
       <path id="DejaVuSans-45" d="M 628 4666 
L 3578 4666 
L 3578 4134 
L 1259 4134 
L 1259 2753 
L 3481 2753 
L 3481 2222 
L 1259 2222 
L 1259 531 
L 3634 531 
L 3634 0 
L 628 0 
L 628 4666 
z
" transform="scale(0.015625)"/>
       <path id="DejaVuSans-63" d="M 3122 3366 
L 3122 2828 
Q 2878 2963 2633 3030 
Q 2388 3097 2138 3097 
Q 1578 3097 1268 2742 
Q 959 2388 959 1747 
Q 959 1106 1268 751 
Q 1578 397 2138 397 
Q 2388 397 2633 464 
Q 2878 531 3122 666 
L 3122 134 
Q 2881 22 2623 -34 
Q 2366 -91 2075 -91 
Q 1284 -91 818 406 
Q 353 903 353 1747 
Q 353 2603 823 3093 
Q 1294 3584 2113 3584 
Q 2378 3584 2631 3529 
Q 2884 3475 3122 3366 
z
" transform="scale(0.015625)"/>
       <path id="DejaVuSans-53" d="M 3425 4513 
L 3425 3897 
Q 3066 4069 2747 4153 
Q 2428 4238 2131 4238 
Q 1616 4238 1336 4038 
Q 1056 3838 1056 3469 
Q 1056 3159 1242 3001 
Q 1428 2844 1947 2747 
L 2328 2669 
Q 3034 2534 3370 2195 
Q 3706 1856 3706 1288 
Q 3706 609 3251 259 
Q 2797 -91 1919 -91 
Q 1588 -91 1214 -16 
Q 841 59 441 206 
L 441 856 
Q 825 641 1194 531 
Q 1563 422 1919 422 
Q 2459 422 2753 634 
Q 3047 847 3047 1241 
Q 3047 1584 2836 1778 
Q 2625 1972 2144 2069 
L 1759 2144 
Q 1053 2284 737 2584 
Q 422 2884 422 3419 
Q 422 4038 858 4394 
Q 1294 4750 2059 4750 
Q 2388 4750 2728 4690 
Q 3069 4631 3425 4513 
z
" transform="scale(0.015625)"/>
       <path id="DejaVuSans-7a" d="M 353 3500 
L 3084 3500 
L 3084 2975 
L 922 459 
L 3084 459 
L 3084 0 
L 275 0 
L 275 525 
L 2438 3041 
L 353 3041 
L 353 3500 
z
" transform="scale(0.015625)"/>
      </defs>
      <use xlink:href="#DejaVuSans-45"/>
      <use xlink:href="#DejaVuSans-66" x="63.183594"/>
      <use xlink:href="#DejaVuSans-66" x="98.388672"/>
      <use xlink:href="#DejaVuSans-65" x="133.59375"/>
      <use xlink:href="#DejaVuSans-63" x="195.117188"/>
      <use xlink:href="#DejaVuSans-74" x="250.097656"/>
      <use xlink:href="#DejaVuSans-20" x="289.306641"/>
      <use xlink:href="#DejaVuSans-53" x="321.09375"/>
      <use xlink:href="#DejaVuSans-69" x="384.570312"/>
      <use xlink:href="#DejaVuSans-7a" x="412.353516"/>
      <use xlink:href="#DejaVuSans-65" x="464.84375"/>
     </g>
    </g>
   </g>
   <g id="line2d_30">
    <path d="M 245.271987 48.239126 
L 261.127525 34.360412 
L 276.983062 27.747719 
L 292.8386 24.846918 
L 308.694137 53.722895 
L 324.549675 52.765239 
L 340.405212 49.312583 
L 356.26075 37.48002 
L 372.116287 38.754028 
L 387.971825 66.235859 
L 403.827362 54.617926 
L 415.844862 49.18201 
" clip-path="url(#p8950c725ef)" style="fill: none; stroke: #ff8040; stroke-width: 1.5; stroke-linecap: square"/>
   </g>
   <g id="line2d_31">
    <path d="M 245.271987 44.627388 
L 261.127525 44.627388 
L 276.983062 44.627388 
L 292.8386 44.627388 
L 308.694137 44.627388 
L 324.549675 44.627388 
L 340.405212 44.627388 
L 356.26075 44.627388 
L 372.116287 44.627388 
L 387.971825 44.627388 
L 403.827362 44.627388 
L 415.844862 44.627388 
" clip-path="url(#p8950c725ef)" style="fill: none; stroke-dasharray: 1.5,2.475; stroke-dashoffset: 0; stroke: #ff8040; stroke-width: 1.5"/>
   </g>
   <g id="line2d_32">
    <path d="M 245.271987 71.252318 
L 261.127525 64.782334 
L 276.983062 66.877005 
L 292.8386 44.47956 
L 308.694137 67.00573 
L 324.549675 75.916522 
L 340.405212 49.494603 
L 356.26075 67.521556 
L 372.116287 96.561014 
L 387.971825 87.867456 
L 403.827362 58.476049 
L 415.844862 61.295218 
" clip-path="url(#p8950c725ef)" style="fill: none; stroke: #ffbf40; stroke-width: 1.5; stroke-linecap: square"/>
   </g>
   <g id="line2d_33">
    <path d="M 245.271987 67.702477 
L 261.127525 67.702477 
L 276.983062 67.702477 
L 292.8386 67.702477 
L 308.694137 67.702477 
L 324.549675 67.702477 
L 340.405212 67.702477 
L 356.26075 67.702477 
L 372.116287 67.702477 
L 387.971825 67.702477 
L 403.827362 67.702477 
L 415.844862 67.702477 
" clip-path="url(#p8950c725ef)" style="fill: none; stroke-dasharray: 1.5,2.475; stroke-dashoffset: 0; stroke: #ffbf40; stroke-width: 1.5"/>
   </g>
   <g id="line2d_34">
    <path d="M 245.271987 77.538077 
L 403.827362 77.538077 
" clip-path="url(#p8950c725ef)" style="fill: none; stroke-dasharray: 5.55,2.4; stroke-dashoffset: 0; stroke: #000000; stroke-width: 1.5"/>
   </g>
   <g id="patch_13">
    <path d="M 245.271987 114.207932 
L 245.271987 7.2 
" style="fill: none; stroke: #666666; stroke-width: 0.8; stroke-linejoin: miter; stroke-linecap: square"/>
   </g>
   <g id="legend_3">
    <g id="patch_14">
     <path d="M 362.458612 60.57 
L 398.227362 60.57 
Q 399.827362 60.57 399.827362 58.97 
L 399.827362 12.8 
Q 399.827362 11.2 398.227362 11.2 
L 362.458612 11.2 
Q 360.858612 11.2 360.858612 12.8 
L 360.858612 58.97 
Q 360.858612 60.57 362.458612 60.57 
z
" style="fill: #ffffff; opacity: 0.8; stroke: #666666; stroke-linejoin: miter"/>
    </g>
    <g id="patch_15">
     <path d="M 364.058612 20.47875 
L 380.058612 20.47875 
L 380.058612 14.87875 
L 364.058612 14.87875 
z
" style="fill: #ff8040; fill-opacity: 0.2"/>
    </g>
    <g id="text_27">
     <!-- S1 -->
     <g style="fill: #666666" transform="translate(386.458612 20.47875)scale(0.08 -0.08)">
      <use xlink:href="#DejaVuSans-53"/>
      <use xlink:href="#DejaVuSans-31" x="63.476562"/>
     </g>
    </g>
    <g id="line2d_35">
     <path d="M 364.058612 29.42125 
L 372.058612 29.42125 
L 380.058612 29.42125 
" style="fill: none; stroke: #ff8040; stroke-width: 1.5; stroke-linecap: square"/>
    </g>
    <g id="line2d_36">
     <path d="M 364.058612 41.16375 
L 372.058612 41.16375 
L 380.058612 41.16375 
" style="fill: none; stroke-dasharray: 1.5,2.475; stroke-dashoffset: 0; stroke: #ff8040; stroke-width: 1.5"/>
    </g>
    <g id="text_28">
     <!-- S2 -->
     <g style="fill: #666666" transform="translate(386.458612 43.96375)scale(0.08 -0.08)">
      <use xlink:href="#DejaVuSans-53"/>
      <use xlink:href="#DejaVuSans-32" x="63.476562"/>
     </g>
    </g>
    <g id="patch_16">
     <path d="M 364.058612 55.70625 
L 380.058612 55.70625 
L 380.058612 50.10625 
L 364.058612 50.10625 
z
" style="fill: #ffbf40; fill-opacity: 0.2"/>
    </g>
   </g>
  </g>
 </g>
 <defs>
  <clipPath id="p8312060863">
   <rect x="39.15" y="7.2" width="158.555375" height="44.586638"/>
  </clipPath>
  <clipPath id="p18d39ec4b7">
   <rect x="39.15" y="69.621294" width="158.555375" height="44.586638"/>
  </clipPath>
  <clipPath id="p8950c725ef">
   <rect x="245.271987" y="7.2" width="158.555375" height="107.007932"/>
  </clipPath>
 </defs>
</svg>
