<?xml version="1.0" encoding="utf-8" standalone="no"?>
<!DOCTYPE svg PUBLIC "-//W3C//DTD SVG 1.1//EN"
  "http://www.w3.org/Graphics/SVG/1.1/DTD/svg11.dtd">
<svg xmlns:xlink="http://www.w3.org/1999/xlink" width="468.576975pt" height="133.79086pt" viewBox="0 0 468.576975 133.79086" xmlns="http://www.w3.org/2000/svg" version="1.1">
 <metadata>
  <rdf:RDF xmlns:dc="http://purl.org/dc/elements/1.1/" xmlns:cc="http://creativecommons.org/ns#" xmlns:rdf="http://www.w3.org/1999/02/22-rdf-syntax-ns#">
   <cc:Work>
    <dc:type rdf:resource="http://purl.org/dc/dcmitype/StillImage"/>
    <dc:date>2022-09-20T11:56:45.981833</dc:date>
    <dc:format>image/svg+xml</dc:format>
    <dc:creator>
     <cc:Agent>
      <dc:title>Matplotlib v3.5.1, https://matplotlib.org/</dc:title>
     </cc:Agent>
    </dc:creator>
   </cc:Work>
  </rdf:RDF>
 </metadata>
 <defs>
  <style type="text/css">*{stroke-linejoin: round; stroke-linecap: butt}</style>
 </defs>
 <g id="figure_1">
  <g id="patch_1">
   <path d="M 0 133.79086 
L 468.576975 133.79086 
L 468.576975 0 
L 0 0 
L 0 133.79086 
z
" style="fill: none"/>
  </g>
  <g id="axes_1">
   <g id="patch_2">
    <path d="M 42.625 97.34836 
L 171.08579 97.34836 
L 171.08579 7.2 
L 42.625 7.2 
z
" style="fill: #ffffff"/>
   </g>
   <g id="line2d_1">
    <path d="M 42.625 50.755118 
L 73.343885 49.122154 
L 104.062769 47.48919 
L 134.781654 45.856226 
L 165.500538 44.223262 
" clip-path="url(#p2fe3009d19)" style="fill: none; stroke-dasharray: 3.7,1.6; stroke-dashoffset: 0; stroke: #19b382"/>
   </g>
   <g id="line2d_2">
    <path d="M 42.625 40.70239 
L 73.343885 38.143103 
L 104.062769 35.583817 
L 134.781654 33.02453 
L 165.500538 30.465243 
" clip-path="url(#p2fe3009d19)" style="fill: none; stroke-dasharray: 3.7,1.6; stroke-dashoffset: 0; stroke: #e6438c"/>
   </g>
   <g id="LineCollection_1">
    <path d="M 35.600293 30.216603 
L 190.143849 30.216603 
" clip-path="url(#p2fe3009d19)" style="fill: none; stroke-dasharray: 1.85,0.8; stroke-dashoffset: 0; stroke: #666666; stroke-width: 0.5"/>
   </g>
   <g id="PathCollection_1">
    <defs>
     <path id="C0_0_c7a374a8bf" d="M 0 2.738613 
C 0.726289 2.738613 1.422928 2.450055 1.936492 1.936492 
C 2.450055 1.422928 2.738613 0.726289 2.738613 -0 
C 2.738613 -0.726289 2.450055 -1.422928 1.936492 -1.936492 
C 1.422928 -2.450055 0.726289 -2.738613 0 -2.738613 
C -0.726289 -2.738613 -1.422928 -2.450055 -1.936492 -1.936492 
C -2.450055 -1.422928 -2.738613 -0.726289 -2.738613 0 
C -2.738613 0.726289 -2.450055 1.422928 -1.936492 1.936492 
C -1.422928 2.450055 -0.726289 2.738613 0 2.738613 
z
"/>
    </defs>
    <g clip-path="url(#p2fe3009d19)">
     <use xlink:href="#C0_0_c7a374a8bf" x="98.928712" y="35.608546" style="fill: none; stroke: #19b382"/>
    </g>
    <g clip-path="url(#p2fe3009d19)">
     <use xlink:href="#C0_0_c7a374a8bf" x="85.357316" y="28.927214" style="fill: none; stroke: #19b382"/>
    </g>
    <g clip-path="url(#p2fe3009d19)">
     <use xlink:href="#C0_0_c7a374a8bf" x="69.735108" y="46.547734" style="fill: none; stroke: #19b382"/>
    </g>
    <g clip-path="url(#p2fe3009d19)">
     <use xlink:href="#C0_0_c7a374a8bf" x="94.950399" y="46.473604" style="fill: none; stroke: #19b382"/>
    </g>
    <g clip-path="url(#p2fe3009d19)">
     <use xlink:href="#C0_0_c7a374a8bf" x="140.391281" y="27.147775" style="fill: none; stroke: #19b382"/>
    </g>
    <g clip-path="url(#p2fe3009d19)">
     <use xlink:href="#C0_0_c7a374a8bf" x="100.664053" y="66.045549" style="fill: none; stroke: #19b382"/>
    </g>
    <g clip-path="url(#p2fe3009d19)">
     <use xlink:href="#C0_0_c7a374a8bf" x="89.214766" y="66.100921" style="fill: none; stroke: #19b382"/>
    </g>
    <g clip-path="url(#p2fe3009d19)">
     <use xlink:href="#C0_0_c7a374a8bf" x="163.329993" y="56.079502" style="fill: none; stroke: #19b382"/>
    </g>
    <g clip-path="url(#p2fe3009d19)">
     <use xlink:href="#C0_0_c7a374a8bf" x="113.540275" y="61.870872" style="fill: none; stroke: #19b382"/>
    </g>
    <g clip-path="url(#p2fe3009d19)">
     <use xlink:href="#C0_0_c7a374a8bf" x="148.843229" y="36.670646" style="fill: none; stroke: #19b382"/>
    </g>
   </g>
   <g id="PathCollection_2">
    <defs>
     <path id="C1_0_7b15b7e411" d="M 0 2.738613 
C 0.726289 2.738613 1.422928 2.450055 1.936492 1.936492 
C 2.450055 1.422928 2.738613 0.726289 2.738613 -0 
C 2.738613 -0.726289 2.450055 -1.422928 1.936492 -1.936492 
C 1.422928 -2.450055 0.726289 -2.738613 0 -2.738613 
C -0.726289 -2.738613 -1.422928 -2.450055 -1.936492 -1.936492 
C -2.450055 -1.422928 -2.738613 -0.726289 -2.738613 0 
C -2.738613 0.726289 -2.450055 1.422928 -1.936492 1.936492 
C -1.422928 2.450055 -0.726289 2.738613 0 2.738613 
z
"/>
    </defs>
    <g clip-path="url(#p2fe3009d19)">
     <use xlink:href="#C1_0_7b15b7e411" x="183.119142" y="25.75087" style="fill: none; stroke: #e6438c"/>
    </g>
    <g clip-path="url(#p2fe3009d19)">
     <use xlink:href="#C1_0_7b15b7e411" x="167.528779" y="29.343016" style="fill: none; stroke: #e6438c"/>
    </g>
    <g clip-path="url(#p2fe3009d19)">
     <use xlink:href="#C1_0_7b15b7e411" x="81.392834" y="32.045512" style="fill: none; stroke: #e6438c"/>
    </g>
    <g clip-path="url(#p2fe3009d19)">
     <use xlink:href="#C1_0_7b15b7e411" x="65.166237" y="37.05598" style="fill: none; stroke: #e6438c"/>
    </g>
    <g clip-path="url(#p2fe3009d19)">
     <use xlink:href="#C1_0_7b15b7e411" x="93.141172" y="41.80781" style="fill: none; stroke: #e6438c"/>
    </g>
    <g clip-path="url(#p2fe3009d19)">
     <use xlink:href="#C1_0_7b15b7e411" x="114.374758" y="43.798561" style="fill: none; stroke: #e6438c"/>
    </g>
    <g clip-path="url(#p2fe3009d19)">
     <use xlink:href="#C1_0_7b15b7e411" x="74.053827" y="35.091204" style="fill: none; stroke: #e6438c"/>
    </g>
   </g>
   <g id="PathCollection_3">
    <defs>
     <path id="C2_0_1cf3c228d8" d="M 0 2.738613 
C 0.726289 2.738613 1.422928 2.450055 1.936492 1.936492 
C 2.450055 1.422928 2.738613 0.726289 2.738613 -0 
C 2.738613 -0.726289 2.450055 -1.422928 1.936492 -1.936492 
C 1.422928 -2.450055 0.726289 -2.738613 0 -2.738613 
C -0.726289 -2.738613 -1.422928 -2.450055 -1.936492 -1.936492 
C -2.450055 -1.422928 -2.738613 -0.726289 -2.738613 0 
C -2.738613 0.726289 -2.450055 1.422928 -1.936492 1.936492 
C -1.422928 2.450055 -0.726289 2.738613 0 2.738613 
z
"/>
    </defs>
    <g clip-path="url(#p2fe3009d19)">
     <use xlink:href="#C2_0_1cf3c228d8" x="48.210252" y="21.608802" style="fill: none; stroke: #777777"/>
    </g>
    <g clip-path="url(#p2fe3009d19)">
     <use xlink:href="#C2_0_1cf3c228d8" x="48.210252" y="23.749771" style="fill: none; stroke: #777777"/>
    </g>
    <g clip-path="url(#p2fe3009d19)">
     <use xlink:href="#C2_0_1cf3c228d8" x="48.210252" y="22.857587" style="fill: none; stroke: #777777"/>
    </g>
    <g clip-path="url(#p2fe3009d19)">
     <use xlink:href="#C2_0_1cf3c228d8" x="48.210252" y="20.882884" style="fill: none; stroke: #777777"/>
    </g>
   </g>
   <g id="matplotlib.axis_1">
    <g id="xtick_1">
     <g id="line2d_3">
      <defs>
       <path id="maed77148e4" d="M 0 0 
L 0 3.5 
" style="stroke: #666666; stroke-width: 0.8"/>
      </defs>
      <g>
       <use xlink:href="#maed77148e4" x="48.210252" y="97.34836" style="fill: #666666; stroke: #666666; stroke-width: 0.8"/>
      </g>
     </g>
     <g id="text_1">
      <!-- 0 -->
      <g style="fill: #666666" transform="translate(45.665252 110.42711)scale(0.08 -0.08)">
       <defs>
        <path id="DejaVuSans-30" d="M 2034 4250 
Q 1547 4250 1301 3770 
Q 1056 3291 1056 2328 
Q 1056 1369 1301 889 
Q 1547 409 2034 409 
Q 2525 409 2770 889 
Q 3016 1369 3016 2328 
Q 3016 3291 2770 3770 
Q 2525 4250 2034 4250 
z
M 2034 4750 
Q 2819 4750 3233 4129 
Q 3647 3509 3647 2328 
Q 3647 1150 3233 529 
Q 2819 -91 2034 -91 
Q 1250 -91 836 529 
Q 422 1150 422 2328 
Q 422 3509 836 4129 
Q 1250 4750 2034 4750 
z
" transform="scale(0.015625)"/>
       </defs>
       <use xlink:href="#DejaVuSans-30"/>
      </g>
     </g>
    </g>
    <g id="xtick_2">
     <g id="line2d_4">
      <g>
       <use xlink:href="#maed77148e4" x="76.13651" y="97.34836" style="fill: #666666; stroke: #666666; stroke-width: 0.8"/>
      </g>
     </g>
     <g id="text_2">
      <!-- 0.5 -->
      <g style="fill: #666666" transform="translate(69.77526 110.42711)scale(0.08 -0.08)">
       <defs>
        <path id="DejaVuSans-2e" d="M 684 794 
L 1344 794 
L 1344 0 
L 684 0 
L 684 794 
z
" transform="scale(0.015625)"/>
        <path id="DejaVuSans-35" d="M 691 4666 
L 3169 4666 
L 3169 4134 
L 1269 4134 
L 1269 2991 
Q 1406 3038 1543 3061 
Q 1681 3084 1819 3084 
Q 2600 3084 3056 2656 
Q 3513 2228 3513 1497 
Q 3513 744 3044 326 
Q 2575 -91 1722 -91 
Q 1428 -91 1123 -41 
Q 819 9 494 109 
L 494 744 
Q 775 591 1075 516 
Q 1375 441 1709 441 
Q 2250 441 2565 725 
Q 2881 1009 2881 1497 
Q 2881 1984 2565 2268 
Q 2250 2553 1709 2553 
Q 1456 2553 1204 2497 
Q 953 2441 691 2322 
L 691 4666 
z
" transform="scale(0.015625)"/>
       </defs>
       <use xlink:href="#DejaVuSans-30"/>
       <use xlink:href="#DejaVuSans-2e" x="63.623047"/>
       <use xlink:href="#DejaVuSans-35" x="95.410156"/>
      </g>
     </g>
    </g>
    <g id="xtick_3">
     <g id="line2d_5">
      <g>
       <use xlink:href="#maed77148e4" x="104.062769" y="97.34836" style="fill: #666666; stroke: #666666; stroke-width: 0.8"/>
      </g>
     </g>
     <g id="text_3">
      <!-- 1.0 -->
      <g style="fill: #666666" transform="translate(97.701519 110.42711)scale(0.08 -0.08)">
       <defs>
        <path id="DejaVuSans-31" d="M 794 531 
L 1825 531 
L 1825 4091 
L 703 3866 
L 703 4441 
L 1819 4666 
L 2450 4666 
L 2450 531 
L 3481 531 
L 3481 0 
L 794 0 
L 794 531 
z
" transform="scale(0.015625)"/>
       </defs>
       <use xlink:href="#DejaVuSans-31"/>
       <use xlink:href="#DejaVuSans-2e" x="63.623047"/>
       <use xlink:href="#DejaVuSans-30" x="95.410156"/>
      </g>
     </g>
    </g>
    <g id="xtick_4">
     <g id="line2d_6">
      <g>
       <use xlink:href="#maed77148e4" x="131.989028" y="97.34836" style="fill: #666666; stroke: #666666; stroke-width: 0.8"/>
      </g>
     </g>
     <g id="text_4">
      <!-- 1.5 -->
      <g style="fill: #666666" transform="translate(125.627778 110.42711)scale(0.08 -0.08)">
       <use xlink:href="#DejaVuSans-31"/>
       <use xlink:href="#DejaVuSans-2e" x="63.623047"/>
       <use xlink:href="#DejaVuSans-35" x="95.410156"/>
      </g>
     </g>
    </g>
    <g id="xtick_5">
     <g id="line2d_7">
      <g>
       <use xlink:href="#maed77148e4" x="159.915286" y="97.34836" style="fill: #666666; stroke: #666666; stroke-width: 0.8"/>
      </g>
     </g>
     <g id="text_5">
      <!-- 2.0 -->
      <g style="fill: #666666" transform="translate(153.554036 110.42711)scale(0.08 -0.08)">
       <defs>
        <path id="DejaVuSans-32" d="M 1228 531 
L 3431 531 
L 3431 0 
L 469 0 
L 469 531 
Q 828 903 1448 1529 
Q 2069 2156 2228 2338 
Q 2531 2678 2651 2914 
Q 2772 3150 2772 3378 
Q 2772 3750 2511 3984 
Q 2250 4219 1831 4219 
Q 1534 4219 1204 4116 
Q 875 4013 500 3803 
L 500 4441 
Q 881 4594 1212 4672 
Q 1544 4750 1819 4750 
Q 2544 4750 2975 4387 
Q 3406 4025 3406 3419 
Q 3406 3131 3298 2873 
Q 3191 2616 2906 2266 
Q 2828 2175 2409 1742 
Q 1991 1309 1228 531 
z
" transform="scale(0.015625)"/>
       </defs>
       <use xlink:href="#DejaVuSans-32"/>
       <use xlink:href="#DejaVuSans-2e" x="63.623047"/>
       <use xlink:href="#DejaVuSans-30" x="95.410156"/>
      </g>
     </g>
    </g>
    <g id="text_6">
     <!-- TotalLesion Volume ($mm^3$) -->
     <g style="fill: #666666" transform="translate(39.805395 124.511173)scale(0.1 -0.1)">
      <defs>
       <path id="DejaVuSans-54" d="M -19 4666 
L 3928 4666 
L 3928 4134 
L 2272 4134 
L 2272 0 
L 1638 0 
L 1638 4134 
L -19 4134 
L -19 4666 
z
" transform="scale(0.015625)"/>
       <path id="DejaVuSans-6f" d="M 1959 3097 
Q 1497 3097 1228 2736 
Q 959 2375 959 1747 
Q 959 1119 1226 758 
Q 1494 397 1959 397 
Q 2419 397 2687 759 
Q 2956 1122 2956 1747 
Q 2956 2369 2687 2733 
Q 2419 3097 1959 3097 
z
M 1959 3584 
Q 2709 3584 3137 3096 
Q 3566 2609 3566 1747 
Q 3566 888 3137 398 
Q 2709 -91 1959 -91 
Q 1206 -91 779 398 
Q 353 888 353 1747 
Q 353 2609 779 3096 
Q 1206 3584 1959 3584 
z
" transform="scale(0.015625)"/>
       <path id="DejaVuSans-74" d="M 1172 4494 
L 1172 3500 
L 2356 3500 
L 2356 3053 
L 1172 3053 
L 1172 1153 
Q 1172 725 1289 603 
Q 1406 481 1766 481 
L 2356 481 
L 2356 0 
L 1766 0 
Q 1100 0 847 248 
Q 594 497 594 1153 
L 594 3053 
L 172 3053 
L 172 3500 
L 594 3500 
L 594 4494 
L 1172 4494 
z
" transform="scale(0.015625)"/>
       <path id="DejaVuSans-61" d="M 2194 1759 
Q 1497 1759 1228 1600 
Q 959 1441 959 1056 
Q 959 750 1161 570 
Q 1363 391 1709 391 
Q 2188 391 2477 730 
Q 2766 1069 2766 1631 
L 2766 1759 
L 2194 1759 
z
M 3341 1997 
L 3341 0 
L 2766 0 
L 2766 531 
Q 2569 213 2275 61 
Q 1981 -91 1556 -91 
Q 1019 -91 701 211 
Q 384 513 384 1019 
Q 384 1609 779 1909 
Q 1175 2209 1959 2209 
L 2766 2209 
L 2766 2266 
Q 2766 2663 2505 2880 
Q 2244 3097 1772 3097 
Q 1472 3097 1187 3025 
Q 903 2953 641 2809 
L 641 3341 
Q 956 3463 1253 3523 
Q 1550 3584 1831 3584 
Q 2591 3584 2966 3190 
Q 3341 2797 3341 1997 
z
" transform="scale(0.015625)"/>
       <path id="DejaVuSans-6c" d="M 603 4863 
L 1178 4863 
L 1178 0 
L 603 0 
L 603 4863 
z
" transform="scale(0.015625)"/>
       <path id="DejaVuSans-4c" d="M 628 4666 
L 1259 4666 
L 1259 531 
L 3531 531 
L 3531 0 
L 628 0 
L 628 4666 
z
" transform="scale(0.015625)"/>
       <path id="DejaVuSans-65" d="M 3597 1894 
L 3597 1613 
L 953 1613 
Q 991 1019 1311 708 
Q 1631 397 2203 397 
Q 2534 397 2845 478 
Q 3156 559 3463 722 
L 3463 178 
Q 3153 47 2828 -22 
Q 2503 -91 2169 -91 
Q 1331 -91 842 396 
Q 353 884 353 1716 
Q 353 2575 817 3079 
Q 1281 3584 2069 3584 
Q 2775 3584 3186 3129 
Q 3597 2675 3597 1894 
z
M 3022 2063 
Q 3016 2534 2758 2815 
Q 2500 3097 2075 3097 
Q 1594 3097 1305 2825 
Q 1016 2553 972 2059 
L 3022 2063 
z
" transform="scale(0.015625)"/>
       <path id="DejaVuSans-73" d="M 2834 3397 
L 2834 2853 
Q 2591 2978 2328 3040 
Q 2066 3103 1784 3103 
Q 1356 3103 1142 2972 
Q 928 2841 928 2578 
Q 928 2378 1081 2264 
Q 1234 2150 1697 2047 
L 1894 2003 
Q 2506 1872 2764 1633 
Q 3022 1394 3022 966 
Q 3022 478 2636 193 
Q 2250 -91 1575 -91 
Q 1294 -91 989 -36 
Q 684 19 347 128 
L 347 722 
Q 666 556 975 473 
Q 1284 391 1588 391 
Q 1994 391 2212 530 
Q 2431 669 2431 922 
Q 2431 1156 2273 1281 
Q 2116 1406 1581 1522 
L 1381 1569 
Q 847 1681 609 1914 
Q 372 2147 372 2553 
Q 372 3047 722 3315 
Q 1072 3584 1716 3584 
Q 2034 3584 2315 3537 
Q 2597 3491 2834 3397 
z
" transform="scale(0.015625)"/>
       <path id="DejaVuSans-69" d="M 603 3500 
L 1178 3500 
L 1178 0 
L 603 0 
L 603 3500 
z
M 603 4863 
L 1178 4863 
L 1178 4134 
L 603 4134 
L 603 4863 
z
" transform="scale(0.015625)"/>
       <path id="DejaVuSans-6e" d="M 3513 2113 
L 3513 0 
L 2938 0 
L 2938 2094 
Q 2938 2591 2744 2837 
Q 2550 3084 2163 3084 
Q 1697 3084 1428 2787 
Q 1159 2491 1159 1978 
L 1159 0 
L 581 0 
L 581 3500 
L 1159 3500 
L 1159 2956 
Q 1366 3272 1645 3428 
Q 1925 3584 2291 3584 
Q 2894 3584 3203 3211 
Q 3513 2838 3513 2113 
z
" transform="scale(0.015625)"/>
       <path id="DejaVuSans-20" transform="scale(0.015625)"/>
       <path id="DejaVuSans-56" d="M 1831 0 
L 50 4666 
L 709 4666 
L 2188 738 
L 3669 4666 
L 4325 4666 
L 2547 0 
L 1831 0 
z
" transform="scale(0.015625)"/>
       <path id="DejaVuSans-75" d="M 544 1381 
L 544 3500 
L 1119 3500 
L 1119 1403 
Q 1119 906 1312 657 
Q 1506 409 1894 409 
Q 2359 409 2629 706 
Q 2900 1003 2900 1516 
L 2900 3500 
L 3475 3500 
L 3475 0 
L 2900 0 
L 2900 538 
Q 2691 219 2414 64 
Q 2138 -91 1772 -91 
Q 1169 -91 856 284 
Q 544 659 544 1381 
z
M 1991 3584 
L 1991 3584 
z
" transform="scale(0.015625)"/>
       <path id="DejaVuSans-6d" d="M 3328 2828 
Q 3544 3216 3844 3400 
Q 4144 3584 4550 3584 
Q 5097 3584 5394 3201 
Q 5691 2819 5691 2113 
L 5691 0 
L 5113 0 
L 5113 2094 
Q 5113 2597 4934 2840 
Q 4756 3084 4391 3084 
Q 3944 3084 3684 2787 
Q 3425 2491 3425 1978 
L 3425 0 
L 2847 0 
L 2847 2094 
Q 2847 2600 2669 2842 
Q 2491 3084 2119 3084 
Q 1678 3084 1418 2786 
Q 1159 2488 1159 1978 
L 1159 0 
L 581 0 
L 581 3500 
L 1159 3500 
L 1159 2956 
Q 1356 3278 1631 3431 
Q 1906 3584 2284 3584 
Q 2666 3584 2933 3390 
Q 3200 3197 3328 2828 
z
" transform="scale(0.015625)"/>
       <path id="DejaVuSans-28" d="M 1984 4856 
Q 1566 4138 1362 3434 
Q 1159 2731 1159 2009 
Q 1159 1288 1364 580 
Q 1569 -128 1984 -844 
L 1484 -844 
Q 1016 -109 783 600 
Q 550 1309 550 2009 
Q 550 2706 781 3412 
Q 1013 4119 1484 4856 
L 1984 4856 
z
" transform="scale(0.015625)"/>
       <path id="DejaVuSans-Oblique-6d" d="M 5747 2113 
L 5338 0 
L 4763 0 
L 5166 2094 
Q 5191 2228 5203 2325 
Q 5216 2422 5216 2491 
Q 5216 2772 5059 2928 
Q 4903 3084 4622 3084 
Q 4203 3084 3875 2770 
Q 3547 2456 3450 1953 
L 3066 0 
L 2491 0 
L 2900 2094 
Q 2925 2209 2937 2307 
Q 2950 2406 2950 2484 
Q 2950 2769 2794 2926 
Q 2638 3084 2363 3084 
Q 1938 3084 1609 2770 
Q 1281 2456 1184 1953 
L 800 0 
L 225 0 
L 909 3500 
L 1484 3500 
L 1375 2956 
Q 1609 3263 1923 3423 
Q 2238 3584 2597 3584 
Q 2978 3584 3223 3384 
Q 3469 3184 3519 2828 
Q 3781 3197 4126 3390 
Q 4472 3584 4856 3584 
Q 5306 3584 5551 3325 
Q 5797 3066 5797 2591 
Q 5797 2488 5784 2364 
Q 5772 2241 5747 2113 
z
" transform="scale(0.015625)"/>
       <path id="DejaVuSans-33" d="M 2597 2516 
Q 3050 2419 3304 2112 
Q 3559 1806 3559 1356 
Q 3559 666 3084 287 
Q 2609 -91 1734 -91 
Q 1441 -91 1130 -33 
Q 819 25 488 141 
L 488 750 
Q 750 597 1062 519 
Q 1375 441 1716 441 
Q 2309 441 2620 675 
Q 2931 909 2931 1356 
Q 2931 1769 2642 2001 
Q 2353 2234 1838 2234 
L 1294 2234 
L 1294 2753 
L 1863 2753 
Q 2328 2753 2575 2939 
Q 2822 3125 2822 3475 
Q 2822 3834 2567 4026 
Q 2313 4219 1838 4219 
Q 1578 4219 1281 4162 
Q 984 4106 628 3988 
L 628 4550 
Q 988 4650 1302 4700 
Q 1616 4750 1894 4750 
Q 2613 4750 3031 4423 
Q 3450 4097 3450 3541 
Q 3450 3153 3228 2886 
Q 3006 2619 2597 2516 
z
" transform="scale(0.015625)"/>
       <path id="DejaVuSans-29" d="M 513 4856 
L 1013 4856 
Q 1481 4119 1714 3412 
Q 1947 2706 1947 2009 
Q 1947 1309 1714 600 
Q 1481 -109 1013 -844 
L 513 -844 
Q 928 -128 1133 580 
Q 1338 1288 1338 2009 
Q 1338 2731 1133 3434 
Q 928 4138 513 4856 
z
" transform="scale(0.015625)"/>
      </defs>
      <use xlink:href="#DejaVuSans-54" transform="translate(0 0.765625)"/>
      <use xlink:href="#DejaVuSans-6f" transform="translate(61.083984 0.765625)"/>
      <use xlink:href="#DejaVuSans-74" transform="translate(122.265625 0.765625)"/>
      <use xlink:href="#DejaVuSans-61" transform="translate(161.474609 0.765625)"/>
      <use xlink:href="#DejaVuSans-6c" transform="translate(222.753906 0.765625)"/>
      <use xlink:href="#DejaVuSans-4c" transform="translate(250.537109 0.765625)"/>
      <use xlink:href="#DejaVuSans-65" transform="translate(306.25 0.765625)"/>
      <use xlink:href="#DejaVuSans-73" transform="translate(367.773438 0.765625)"/>
      <use xlink:href="#DejaVuSans-69" transform="translate(419.873047 0.765625)"/>
      <use xlink:href="#DejaVuSans-6f" transform="translate(447.65625 0.765625)"/>
      <use xlink:href="#DejaVuSans-6e" transform="translate(508.837891 0.765625)"/>
      <use xlink:href="#DejaVuSans-20" transform="translate(572.216797 0.765625)"/>
      <use xlink:href="#DejaVuSans-56" transform="translate(604.003906 0.765625)"/>
      <use xlink:href="#DejaVuSans-6f" transform="translate(672.412109 0.765625)"/>
      <use xlink:href="#DejaVuSans-6c" transform="translate(733.59375 0.765625)"/>
      <use xlink:href="#DejaVuSans-75" transform="translate(761.376953 0.765625)"/>
      <use xlink:href="#DejaVuSans-6d" transform="translate(824.755859 0.765625)"/>
      <use xlink:href="#DejaVuSans-65" transform="translate(922.167969 0.765625)"/>
      <use xlink:href="#DejaVuSans-20" transform="translate(983.691406 0.765625)"/>
      <use xlink:href="#DejaVuSans-28" transform="translate(1015.478516 0.765625)"/>
      <use xlink:href="#DejaVuSans-Oblique-6d" transform="translate(1054.492188 0.765625)"/>
      <use xlink:href="#DejaVuSans-Oblique-6d" transform="translate(1151.904297 0.765625)"/>
      <use xlink:href="#DejaVuSans-33" transform="translate(1253.966302 39.046875)scale(0.7)"/>
      <use xlink:href="#DejaVuSans-29" transform="translate(1301.23681 0.765625)"/>
     </g>
    </g>
   </g>
   <g id="matplotlib.axis_2">
    <g id="ytick_1">
     <g id="line2d_8">
      <defs>
       <path id="mf8904676c2" d="M 0 0 
L -3.5 0 
" style="stroke: #666666; stroke-width: 0.8"/>
      </defs>
      <g>
       <use xlink:href="#mf8904676c2" x="42.625" y="30.216603" style="fill: #666666; stroke: #666666; stroke-width: 0.8"/>
      </g>
     </g>
     <g id="text_7">
      <!-- x1 -->
      <g style="fill: #666666" transform="translate(28.25625 32.496134)scale(0.06 -0.06)">
       <defs>
        <path id="DejaVuSans-78" d="M 3513 3500 
L 2247 1797 
L 3578 0 
L 2900 0 
L 1881 1375 
L 863 0 
L 184 0 
L 1544 1831 
L 300 3500 
L 978 3500 
L 1906 2253 
L 2834 3500 
L 3513 3500 
z
" transform="scale(0.015625)"/>
       </defs>
       <use xlink:href="#DejaVuSans-78"/>
       <use xlink:href="#DejaVuSans-31" x="59.179688"/>
      </g>
     </g>
    </g>
    <g id="ytick_2">
     <g id="line2d_9">
      <g>
       <use xlink:href="#mf8904676c2" x="42.625" y="49.397105" style="fill: #666666; stroke: #666666; stroke-width: 0.8"/>
      </g>
     </g>
     <g id="text_8">
      <!-- x1/4 -->
      <g style="fill: #666666" transform="translate(22.4175 51.676636)scale(0.06 -0.06)">
       <defs>
        <path id="DejaVuSans-2f" d="M 1625 4666 
L 2156 4666 
L 531 -594 
L 0 -594 
L 1625 4666 
z
" transform="scale(0.015625)"/>
        <path id="DejaVuSans-34" d="M 2419 4116 
L 825 1625 
L 2419 1625 
L 2419 4116 
z
M 2253 4666 
L 3047 4666 
L 3047 1625 
L 3713 1625 
L 3713 1100 
L 3047 1100 
L 3047 0 
L 2419 0 
L 2419 1100 
L 313 1100 
L 313 1709 
L 2253 4666 
z
" transform="scale(0.015625)"/>
       </defs>
       <use xlink:href="#DejaVuSans-78"/>
       <use xlink:href="#DejaVuSans-31" x="59.179688"/>
       <use xlink:href="#DejaVuSans-2f" x="122.802734"/>
       <use xlink:href="#DejaVuSans-34" x="156.494141"/>
      </g>
     </g>
    </g>
    <g id="ytick_3">
     <g id="line2d_10">
      <g>
       <use xlink:href="#mf8904676c2" x="42.625" y="68.577607" style="fill: #666666; stroke: #666666; stroke-width: 0.8"/>
      </g>
     </g>
     <g id="text_9">
      <!-- x1/16 -->
      <g style="fill: #666666" transform="translate(18.6 70.857138)scale(0.06 -0.06)">
       <defs>
        <path id="DejaVuSans-36" d="M 2113 2584 
Q 1688 2584 1439 2293 
Q 1191 2003 1191 1497 
Q 1191 994 1439 701 
Q 1688 409 2113 409 
Q 2538 409 2786 701 
Q 3034 994 3034 1497 
Q 3034 2003 2786 2293 
Q 2538 2584 2113 2584 
z
M 3366 4563 
L 3366 3988 
Q 3128 4100 2886 4159 
Q 2644 4219 2406 4219 
Q 1781 4219 1451 3797 
Q 1122 3375 1075 2522 
Q 1259 2794 1537 2939 
Q 1816 3084 2150 3084 
Q 2853 3084 3261 2657 
Q 3669 2231 3669 1497 
Q 3669 778 3244 343 
Q 2819 -91 2113 -91 
Q 1303 -91 875 529 
Q 447 1150 447 2328 
Q 447 3434 972 4092 
Q 1497 4750 2381 4750 
Q 2619 4750 2861 4703 
Q 3103 4656 3366 4563 
z
" transform="scale(0.015625)"/>
       </defs>
       <use xlink:href="#DejaVuSans-78"/>
       <use xlink:href="#DejaVuSans-31" x="59.179688"/>
       <use xlink:href="#DejaVuSans-2f" x="122.802734"/>
       <use xlink:href="#DejaVuSans-31" x="156.494141"/>
       <use xlink:href="#DejaVuSans-36" x="220.117188"/>
      </g>
     </g>
    </g>
    <g id="ytick_4">
     <g id="line2d_11">
      <g>
       <use xlink:href="#mf8904676c2" x="42.625" y="87.758109" style="fill: #666666; stroke: #666666; stroke-width: 0.8"/>
      </g>
     </g>
     <g id="text_10">
      <!-- x1/64 -->
      <g style="fill: #666666" transform="translate(18.6 90.03764)scale(0.06 -0.06)">
       <use xlink:href="#DejaVuSans-78"/>
       <use xlink:href="#DejaVuSans-31" x="59.179688"/>
       <use xlink:href="#DejaVuSans-2f" x="122.802734"/>
       <use xlink:href="#DejaVuSans-36" x="156.494141"/>
       <use xlink:href="#DejaVuSans-34" x="220.117188"/>
      </g>
     </g>
    </g>
    <g id="ytick_5">
     <g id="line2d_12">
      <g>
       <use xlink:href="#mf8904676c2" x="42.625" y="11.0361" style="fill: #666666; stroke: #666666; stroke-width: 0.8"/>
      </g>
     </g>
     <g id="text_11">
      <!-- x4 -->
      <g style="fill: #666666" transform="translate(28.25625 13.315632)scale(0.06 -0.06)">
       <use xlink:href="#DejaVuSans-78"/>
       <use xlink:href="#DejaVuSans-34" x="59.179688"/>
      </g>
     </g>
    </g>
    <g id="text_12">
     <!-- $\frac{OR^{\dagger}}{OR}$ -->
     <g style="fill: #666666" transform="translate(7.2 55.62418)scale(0.1 -0.1)">
      <defs>
       <path id="DejaVuSans-Oblique-4f" d="M 2919 4238 
Q 2400 4238 2003 3986 
Q 1606 3734 1313 3219 
Q 1125 2891 1026 2522 
Q 928 2153 928 1778 
Q 928 1128 1239 775 
Q 1550 422 2119 422 
Q 2631 422 3032 676 
Q 3434 931 3719 1434 
Q 3909 1772 4009 2142 
Q 4109 2513 4109 2881 
Q 4109 3528 3796 3883 
Q 3484 4238 2919 4238 
z
M 2100 -91 
Q 1241 -91 748 418 
Q 256 928 256 1813 
Q 256 2319 448 2847 
Q 641 3375 978 3788 
Q 1375 4272 1862 4511 
Q 2350 4750 2938 4750 
Q 3794 4750 4287 4245 
Q 4781 3741 4781 2869 
Q 4781 2331 4593 1812 
Q 4406 1294 4056 872 
Q 3656 384 3173 146 
Q 2691 -91 2100 -91 
z
" transform="scale(0.015625)"/>
       <path id="DejaVuSans-Oblique-52" d="M 1613 4147 
L 1294 2491 
L 2106 2491 
Q 2584 2491 2879 2755 
Q 3175 3019 3175 3444 
Q 3175 3784 2976 3965 
Q 2778 4147 2406 4147 
L 1613 4147 
z
M 2772 2241 
Q 2972 2194 3105 2009 
Q 3238 1825 3413 1275 
L 3809 0 
L 3144 0 
L 2778 1197 
Q 2638 1659 2453 1815 
Q 2269 1972 1888 1972 
L 1191 1972 
L 806 0 
L 172 0 
L 1081 4666 
L 2503 4666 
Q 3150 4666 3495 4373 
Q 3841 4081 3841 3531 
Q 3841 3044 3547 2687 
Q 3253 2331 2772 2241 
z
" transform="scale(0.015625)"/>
       <path id="DejaVuSans-2020" d="M 1325 4666 
L 1875 4666 
L 1875 3353 
L 3022 3353 
L 3022 2875 
L 1875 2875 
L 1875 -616 
L 1325 -616 
L 1325 2875 
L 178 2875 
L 178 3353 
L 1325 3353 
L 1325 4666 
z
" transform="scale(0.015625)"/>
      </defs>
      <use xlink:href="#DejaVuSans-Oblique-4f" transform="translate(0 45.479063)scale(0.7)"/>
      <use xlink:href="#DejaVuSans-Oblique-52" transform="translate(55.097656 45.479063)scale(0.7)"/>
      <use xlink:href="#DejaVuSans-2020" transform="translate(108.647091 72.275937)scale(0.49)"/>
      <use xlink:href="#DejaVuSans-Oblique-4f" transform="translate(16 -38.719375)scale(0.7)"/>
      <use xlink:href="#DejaVuSans-Oblique-52" transform="translate(71.097656 -38.719375)scale(0.7)"/>
      <path d="M 0 19.48375 
L 0 25.73375 
L 135.061154 25.73375 
L 135.061154 19.48375 
L 0 19.48375 
z
"/>
     </g>
    </g>
   </g>
   <g id="patch_3">
    <path d="M 42.625 97.34836 
L 42.625 7.2 
" style="fill: none; stroke: #666666; stroke-width: 0.8; stroke-linejoin: miter; stroke-linecap: square"/>
   </g>
   <g id="patch_4">
    <path d="M 42.625 97.34836 
L 171.08579 97.34836 
" style="fill: none; stroke: #666666; stroke-width: 0.8; stroke-linejoin: miter; stroke-linecap: square"/>
   </g>
   <g id="text_13">
    <!-- $R^2_{adj}$=-0.11 -->
    <g style="fill: #19b382" transform="translate(47.763432 83.210893)scale(0.08 -0.08)">
     <defs>
      <path id="DejaVuSans-Oblique-61" d="M 3438 1997 
L 3047 0 
L 2472 0 
L 2578 531 
Q 2325 219 2001 64 
Q 1678 -91 1281 -91 
Q 834 -91 548 182 
Q 263 456 263 884 
Q 263 1497 752 1853 
Q 1241 2209 2100 2209 
L 2900 2209 
L 2931 2363 
Q 2938 2388 2941 2417 
Q 2944 2447 2944 2509 
Q 2944 2788 2717 2942 
Q 2491 3097 2081 3097 
Q 1800 3097 1504 3025 
Q 1209 2953 897 2809 
L 997 3341 
Q 1322 3463 1633 3523 
Q 1944 3584 2234 3584 
Q 2853 3584 3176 3315 
Q 3500 3047 3500 2534 
Q 3500 2431 3484 2292 
Q 3469 2153 3438 1997 
z
M 2816 1759 
L 2241 1759 
Q 1534 1759 1195 1570 
Q 856 1381 856 984 
Q 856 709 1029 553 
Q 1203 397 1509 397 
Q 1978 397 2328 733 
Q 2678 1069 2791 1631 
L 2816 1759 
z
" transform="scale(0.015625)"/>
      <path id="DejaVuSans-Oblique-64" d="M 2675 525 
Q 2444 222 2128 65 
Q 1813 -91 1428 -91 
Q 903 -91 598 267 
Q 294 625 294 1247 
Q 294 1766 478 2236 
Q 663 2706 1013 3078 
Q 1244 3325 1534 3454 
Q 1825 3584 2144 3584 
Q 2481 3584 2739 3421 
Q 2997 3259 3138 2956 
L 3513 4863 
L 4091 4863 
L 3144 0 
L 2566 0 
L 2675 525 
z
M 891 1350 
Q 891 897 1095 644 
Q 1300 391 1663 391 
Q 1931 391 2161 520 
Q 2391 650 2566 903 
Q 2750 1166 2856 1509 
Q 2963 1853 2963 2188 
Q 2963 2622 2758 2865 
Q 2553 3109 2194 3109 
Q 1922 3109 1687 2981 
Q 1453 2853 1288 2613 
Q 1106 2353 998 2009 
Q 891 1666 891 1350 
z
" transform="scale(0.015625)"/>
      <path id="DejaVuSans-Oblique-6a" d="M 928 3500 
L 1503 3500 
L 813 -63 
L 809 -78 
Q 694 -675 544 -897 
Q 403 -1106 132 -1218 
Q -138 -1331 -506 -1331 
L -722 -1331 
L -628 -844 
L -481 -844 
Q -144 -844 -1 -703 
Q 141 -563 238 -63 
L 928 3500 
z
M 1197 4863 
L 1772 4863 
L 1631 4134 
L 1056 4134 
L 1197 4863 
z
" transform="scale(0.015625)"/>
      <path id="DejaVuSans-3d" d="M 678 2906 
L 4684 2906 
L 4684 2381 
L 678 2381 
L 678 2906 
z
M 678 1631 
L 4684 1631 
L 4684 1100 
L 678 1100 
L 678 1631 
z
" transform="scale(0.015625)"/>
      <path id="DejaVuSans-2d" d="M 313 2009 
L 1997 2009 
L 1997 1497 
L 313 1497 
L 313 2009 
z
" transform="scale(0.015625)"/>
     </defs>
     <use xlink:href="#DejaVuSans-Oblique-52" transform="translate(0 0.701562)"/>
     <use xlink:href="#DejaVuSans-32" transform="translate(76.499193 39.046875)scale(0.7)"/>
     <use xlink:href="#DejaVuSans-Oblique-61" transform="translate(69.482422 -26.642188)scale(0.7)"/>
     <use xlink:href="#DejaVuSans-Oblique-64" transform="translate(112.37793 -26.642188)scale(0.7)"/>
     <use xlink:href="#DejaVuSans-Oblique-6a" transform="translate(156.811523 -26.642188)scale(0.7)"/>
     <use xlink:href="#DejaVuSans-3d" transform="translate(178.994141 0.701562)"/>
     <use xlink:href="#DejaVuSans-2d" transform="translate(262.783203 0.701562)"/>
     <use xlink:href="#DejaVuSans-30" transform="translate(298.867188 0.701562)"/>
     <use xlink:href="#DejaVuSans-2e" transform="translate(362.490234 0.701562)"/>
     <use xlink:href="#DejaVuSans-31" transform="translate(394.277344 0.701562)"/>
     <use xlink:href="#DejaVuSans-31" transform="translate(457.900391 0.701562)"/>
    </g>
    <!-- $p=$0.764 -->
    <g style="fill: #19b382" transform="translate(47.763432 93.865393)scale(0.08 -0.08)">
     <defs>
      <path id="DejaVuSans-Oblique-70" d="M 3175 2156 
Q 3175 2616 2975 2859 
Q 2775 3103 2400 3103 
Q 2144 3103 1911 2972 
Q 1678 2841 1497 2591 
Q 1319 2344 1212 1994 
Q 1106 1644 1106 1300 
Q 1106 863 1306 627 
Q 1506 391 1875 391 
Q 2147 391 2380 519 
Q 2613 647 2778 891 
Q 2956 1147 3065 1494 
Q 3175 1841 3175 2156 
z
M 1394 2969 
Q 1625 3272 1939 3428 
Q 2253 3584 2638 3584 
Q 3175 3584 3472 3232 
Q 3769 2881 3769 2247 
Q 3769 1728 3584 1258 
Q 3400 788 3053 416 
Q 2822 169 2531 39 
Q 2241 -91 1919 -91 
Q 1547 -91 1294 64 
Q 1041 219 916 525 
L 556 -1331 
L -19 -1331 
L 922 3500 
L 1497 3500 
L 1394 2969 
z
" transform="scale(0.015625)"/>
      <path id="DejaVuSans-37" d="M 525 4666 
L 3525 4666 
L 3525 4397 
L 1831 0 
L 1172 0 
L 2766 4134 
L 525 4134 
L 525 4666 
z
" transform="scale(0.015625)"/>
     </defs>
     <use xlink:href="#DejaVuSans-Oblique-70" transform="translate(0 0.78125)"/>
     <use xlink:href="#DejaVuSans-3d" transform="translate(82.958984 0.78125)"/>
     <use xlink:href="#DejaVuSans-30" transform="translate(186.230469 0.78125)"/>
     <use xlink:href="#DejaVuSans-2e" transform="translate(249.853516 0.78125)"/>
     <use xlink:href="#DejaVuSans-37" transform="translate(273.890625 0.78125)"/>
     <use xlink:href="#DejaVuSans-36" transform="translate(337.513672 0.78125)"/>
     <use xlink:href="#DejaVuSans-34" transform="translate(401.136719 0.78125)"/>
    </g>
   </g>
   <g id="text_14">
    <!-- $R^2_{adj}$=0.23 -->
    <g style="fill: #e6438c" transform="translate(94.009316 83.210893)scale(0.08 -0.08)">
     <use xlink:href="#DejaVuSans-Oblique-52" transform="translate(0 0.701562)"/>
     <use xlink:href="#DejaVuSans-32" transform="translate(76.499193 39.046875)scale(0.7)"/>
     <use xlink:href="#DejaVuSans-Oblique-61" transform="translate(69.482422 -26.642188)scale(0.7)"/>
     <use xlink:href="#DejaVuSans-Oblique-64" transform="translate(112.37793 -26.642188)scale(0.7)"/>
     <use xlink:href="#DejaVuSans-Oblique-6a" transform="translate(156.811523 -26.642188)scale(0.7)"/>
     <use xlink:href="#DejaVuSans-3d" transform="translate(178.994141 0.701562)"/>
     <use xlink:href="#DejaVuSans-30" transform="translate(262.783203 0.701562)"/>
     <use xlink:href="#DejaVuSans-2e" transform="translate(326.40625 0.701562)"/>
     <use xlink:href="#DejaVuSans-32" transform="translate(352.693359 0.701562)"/>
     <use xlink:href="#DejaVuSans-33" transform="translate(416.316406 0.701562)"/>
    </g>
    <!-- $p=$0.157 -->
    <g style="fill: #e6438c" transform="translate(94.009316 93.865393)scale(0.08 -0.08)">
     <use xlink:href="#DejaVuSans-Oblique-70" transform="translate(0 0.78125)"/>
     <use xlink:href="#DejaVuSans-3d" transform="translate(82.958984 0.78125)"/>
     <use xlink:href="#DejaVuSans-30" transform="translate(186.230469 0.78125)"/>
     <use xlink:href="#DejaVuSans-2e" transform="translate(249.853516 0.78125)"/>
     <use xlink:href="#DejaVuSans-31" transform="translate(281.640625 0.78125)"/>
     <use xlink:href="#DejaVuSans-35" transform="translate(345.263672 0.78125)"/>
     <use xlink:href="#DejaVuSans-37" transform="translate(401.636719 0.78125)"/>
    </g>
   </g>
  </g>
  <g id="axes_2">
   <g id="patch_5">
    <path d="M 185.38579 97.34836 
L 313.84658 97.34836 
L 313.84658 7.2 
L 185.38579 7.2 
z
" style="fill: #ffffff"/>
   </g>
   <g id="line2d_13">
    <path d="M 180.247358 27.76214 
L 236.770106 44.312351 
L 293.292853 60.862563 
L 349.815601 77.412775 
L 406.338348 93.962986 
" clip-path="url(#pb9f17480b4)" style="fill: none; stroke-dasharray: 3.7,1.6; stroke-dashoffset: 0; stroke: #19b382"/>
   </g>
   <g id="LineCollection_2">
    <path d="M 168.942809 30.216603 
L 417.642898 30.216603 
" clip-path="url(#pb9f17480b4)" style="fill: none; stroke-dasharray: 1.85,0.8; stroke-dashoffset: 0; stroke: #666666; stroke-width: 0.5"/>
   </g>
   <g id="PathCollection_4">
    <defs>
     <path id="C3_0_220884f59c" d="M 0 2.738613 
C 0.726289 2.738613 1.422928 2.450055 1.936492 1.936492 
C 2.450055 1.422928 2.738613 0.726289 2.738613 -0 
C 2.738613 -0.726289 2.450055 -1.422928 1.936492 -1.936492 
C 1.422928 -2.450055 0.726289 -2.738613 0 -2.738613 
C -0.726289 -2.738613 -1.422928 -2.450055 -1.936492 -1.936492 
C -2.450055 -1.422928 -2.738613 -0.726289 -2.738613 0 
C -2.738613 0.726289 -2.450055 1.422928 -1.936492 1.936492 
C -1.422928 2.450055 -0.726289 2.738613 0 2.738613 
z
"/>
    </defs>
    <g clip-path="url(#pb9f17480b4)">
     <use xlink:href="#C3_0_220884f59c" x="231.005741" y="35.608546" style="fill: none; stroke: #19b382"/>
    </g>
    <g clip-path="url(#pb9f17480b4)">
     <use xlink:href="#C3_0_220884f59c" x="251.438581" y="28.927214" style="fill: none; stroke: #19b382"/>
    </g>
    <g clip-path="url(#pb9f17480b4)">
     <use xlink:href="#C3_0_220884f59c" x="223.583452" y="46.547734" style="fill: none; stroke: #19b382"/>
    </g>
    <g clip-path="url(#pb9f17480b4)">
     <use xlink:href="#C3_0_220884f59c" x="257.203346" y="46.473604" style="fill: none; stroke: #19b382"/>
    </g>
    <g clip-path="url(#pb9f17480b4)">
     <use xlink:href="#C3_0_220884f59c" x="214.266211" y="27.147775" style="fill: none; stroke: #19b382"/>
    </g>
    <g clip-path="url(#pb9f17480b4)">
     <use xlink:href="#C3_0_220884f59c" x="261.696966" y="66.045549" style="fill: none; stroke: #19b382"/>
    </g>
    <g clip-path="url(#pb9f17480b4)">
     <use xlink:href="#C3_0_220884f59c" x="254.153204" y="66.100921" style="fill: none; stroke: #19b382"/>
    </g>
    <g clip-path="url(#pb9f17480b4)">
     <use xlink:href="#C3_0_220884f59c" x="284.930991" y="56.079502" style="fill: none; stroke: #19b382"/>
    </g>
    <g clip-path="url(#pb9f17480b4)">
     <use xlink:href="#C3_0_220884f59c" x="230.575963" y="61.870872" style="fill: none; stroke: #19b382"/>
    </g>
    <g clip-path="url(#pb9f17480b4)">
     <use xlink:href="#C3_0_220884f59c" x="255.664386" y="36.670646" style="fill: none; stroke: #19b382"/>
    </g>
   </g>
   <g id="PathCollection_5">
    <defs>
     <path id="C4_0_90dc1f8340" d="M 0 2.738613 
C 0.726289 2.738613 1.422928 2.450055 1.936492 1.936492 
C 2.450055 1.422928 2.738613 0.726289 2.738613 -0 
C 2.738613 -0.726289 2.450055 -1.422928 1.936492 -1.936492 
C 1.422928 -2.450055 0.726289 -2.738613 0 -2.738613 
C -0.726289 -2.738613 -1.422928 -2.450055 -1.936492 -1.936492 
C -2.450055 -1.422928 -2.738613 -0.726289 -2.738613 0 
C -2.738613 0.726289 -2.450055 1.422928 -1.936492 1.936492 
C -1.422928 2.450055 -0.726289 2.738613 0 2.738613 
z
"/>
    </defs>
    <g clip-path="url(#pb9f17480b4)">
     <use xlink:href="#C4_0_90dc1f8340" x="190.524221" y="25.75087" style="fill: none; stroke: #e6438c"/>
    </g>
    <g clip-path="url(#pb9f17480b4)">
     <use xlink:href="#C4_0_90dc1f8340" x="190.524221" y="29.343016" style="fill: none; stroke: #e6438c"/>
    </g>
    <g clip-path="url(#pb9f17480b4)">
     <use xlink:href="#C4_0_90dc1f8340" x="190.524221" y="32.045512" style="fill: none; stroke: #e6438c"/>
    </g>
    <g clip-path="url(#pb9f17480b4)">
     <use xlink:href="#C4_0_90dc1f8340" x="190.524221" y="37.05598" style="fill: none; stroke: #e6438c"/>
    </g>
    <g clip-path="url(#pb9f17480b4)">
     <use xlink:href="#C4_0_90dc1f8340" x="190.524221" y="41.80781" style="fill: none; stroke: #e6438c"/>
    </g>
    <g clip-path="url(#pb9f17480b4)">
     <use xlink:href="#C4_0_90dc1f8340" x="190.524221" y="43.798561" style="fill: none; stroke: #e6438c"/>
    </g>
    <g clip-path="url(#pb9f17480b4)">
     <use xlink:href="#C4_0_90dc1f8340" x="190.524221" y="35.091204" style="fill: none; stroke: #e6438c"/>
    </g>
   </g>
   <g id="PathCollection_6">
    <defs>
     <path id="C5_0_117715098a" d="M 0 2.738613 
C 0.726289 2.738613 1.422928 2.450055 1.936492 1.936492 
C 2.450055 1.422928 2.738613 0.726289 2.738613 -0 
C 2.738613 -0.726289 2.450055 -1.422928 1.936492 -1.936492 
C 1.422928 -2.450055 0.726289 -2.738613 0 -2.738613 
C -0.726289 -2.738613 -1.422928 -2.450055 -1.936492 -1.936492 
C -2.450055 -1.422928 -2.738613 -0.726289 -2.738613 0 
C -2.738613 0.726289 -2.450055 1.422928 -1.936492 1.936492 
C -1.422928 2.450055 -0.726289 2.738613 0 2.738613 
z
"/>
    </defs>
    <g clip-path="url(#pb9f17480b4)">
     <use xlink:href="#C5_0_117715098a" x="190.524221" y="21.608802" style="fill: none; stroke: #777777"/>
    </g>
    <g clip-path="url(#pb9f17480b4)">
     <use xlink:href="#C5_0_117715098a" x="190.524221" y="23.749771" style="fill: none; stroke: #777777"/>
    </g>
    <g clip-path="url(#pb9f17480b4)">
     <use xlink:href="#C5_0_117715098a" x="190.524221" y="22.857587" style="fill: none; stroke: #777777"/>
    </g>
    <g clip-path="url(#pb9f17480b4)">
     <use xlink:href="#C5_0_117715098a" x="190.524221" y="20.882884" style="fill: none; stroke: #777777"/>
    </g>
   </g>
   <g id="matplotlib.axis_3">
    <g id="xtick_6">
     <g id="line2d_14">
      <g>
       <use xlink:href="#maed77148e4" x="190.524221" y="97.34836" style="fill: #666666; stroke: #666666; stroke-width: 0.8"/>
      </g>
     </g>
     <g id="text_15">
      <!-- 0 -->
      <g style="fill: #666666" transform="translate(187.979221 110.42711)scale(0.08 -0.08)">
       <use xlink:href="#DejaVuSans-30"/>
      </g>
     </g>
    </g>
    <g id="xtick_7">
     <g id="line2d_15">
      <g>
       <use xlink:href="#maed77148e4" x="241.908537" y="97.34836" style="fill: #666666; stroke: #666666; stroke-width: 0.8"/>
      </g>
     </g>
     <g id="text_16">
      <!-- 0.5 -->
      <g style="fill: #666666" transform="translate(235.547287 110.42711)scale(0.08 -0.08)">
       <use xlink:href="#DejaVuSans-30"/>
       <use xlink:href="#DejaVuSans-2e" x="63.623047"/>
       <use xlink:href="#DejaVuSans-35" x="95.410156"/>
      </g>
     </g>
    </g>
    <g id="xtick_8">
     <g id="line2d_16">
      <g>
       <use xlink:href="#maed77148e4" x="293.292853" y="97.34836" style="fill: #666666; stroke: #666666; stroke-width: 0.8"/>
      </g>
     </g>
     <g id="text_17">
      <!-- 1.0 -->
      <g style="fill: #666666" transform="translate(286.931603 110.42711)scale(0.08 -0.08)">
       <use xlink:href="#DejaVuSans-31"/>
       <use xlink:href="#DejaVuSans-2e" x="63.623047"/>
       <use xlink:href="#DejaVuSans-30" x="95.410156"/>
      </g>
     </g>
    </g>
    <g id="text_18">
     <!-- NCMLesion Volume ($mm^3$) -->
     <g style="fill: #666666" transform="translate(183.566185 124.511173)scale(0.1 -0.1)">
      <defs>
       <path id="DejaVuSans-4e" d="M 628 4666 
L 1478 4666 
L 3547 763 
L 3547 4666 
L 4159 4666 
L 4159 0 
L 3309 0 
L 1241 3903 
L 1241 0 
L 628 0 
L 628 4666 
z
" transform="scale(0.015625)"/>
       <path id="DejaVuSans-43" d="M 4122 4306 
L 4122 3641 
Q 3803 3938 3442 4084 
Q 3081 4231 2675 4231 
Q 1875 4231 1450 3742 
Q 1025 3253 1025 2328 
Q 1025 1406 1450 917 
Q 1875 428 2675 428 
Q 3081 428 3442 575 
Q 3803 722 4122 1019 
L 4122 359 
Q 3791 134 3420 21 
Q 3050 -91 2638 -91 
Q 1578 -91 968 557 
Q 359 1206 359 2328 
Q 359 3453 968 4101 
Q 1578 4750 2638 4750 
Q 3056 4750 3426 4639 
Q 3797 4528 4122 4306 
z
" transform="scale(0.015625)"/>
       <path id="DejaVuSans-4d" d="M 628 4666 
L 1569 4666 
L 2759 1491 
L 3956 4666 
L 4897 4666 
L 4897 0 
L 4281 0 
L 4281 4097 
L 3078 897 
L 2444 897 
L 1241 4097 
L 1241 0 
L 628 0 
L 628 4666 
z
" transform="scale(0.015625)"/>
      </defs>
      <use xlink:href="#DejaVuSans-4e" transform="translate(0 0.765625)"/>
      <use xlink:href="#DejaVuSans-43" transform="translate(74.804688 0.765625)"/>
      <use xlink:href="#DejaVuSans-4d" transform="translate(144.628906 0.765625)"/>
      <use xlink:href="#DejaVuSans-4c" transform="translate(230.908203 0.765625)"/>
      <use xlink:href="#DejaVuSans-65" transform="translate(286.621094 0.765625)"/>
      <use xlink:href="#DejaVuSans-73" transform="translate(348.144531 0.765625)"/>
      <use xlink:href="#DejaVuSans-69" transform="translate(400.244141 0.765625)"/>
      <use xlink:href="#DejaVuSans-6f" transform="translate(428.027344 0.765625)"/>
      <use xlink:href="#DejaVuSans-6e" transform="translate(489.208984 0.765625)"/>
      <use xlink:href="#DejaVuSans-20" transform="translate(552.587891 0.765625)"/>
      <use xlink:href="#DejaVuSans-56" transform="translate(584.375 0.765625)"/>
      <use xlink:href="#DejaVuSans-6f" transform="translate(652.783203 0.765625)"/>
      <use xlink:href="#DejaVuSans-6c" transform="translate(713.964844 0.765625)"/>
      <use xlink:href="#DejaVuSans-75" transform="translate(741.748047 0.765625)"/>
      <use xlink:href="#DejaVuSans-6d" transform="translate(805.126953 0.765625)"/>
      <use xlink:href="#DejaVuSans-65" transform="translate(902.539062 0.765625)"/>
      <use xlink:href="#DejaVuSans-20" transform="translate(964.0625 0.765625)"/>
      <use xlink:href="#DejaVuSans-28" transform="translate(995.849609 0.765625)"/>
      <use xlink:href="#DejaVuSans-Oblique-6d" transform="translate(1034.863281 0.765625)"/>
      <use xlink:href="#DejaVuSans-Oblique-6d" transform="translate(1132.275391 0.765625)"/>
      <use xlink:href="#DejaVuSans-33" transform="translate(1234.337396 39.046875)scale(0.7)"/>
      <use xlink:href="#DejaVuSans-29" transform="translate(1281.607904 0.765625)"/>
     </g>
    </g>
   </g>
   <g id="matplotlib.axis_4">
    <g id="ytick_6">
     <g id="line2d_17">
      <g>
       <use xlink:href="#mf8904676c2" x="185.38579" y="30.216603" style="fill: #666666; stroke: #666666; stroke-width: 0.8"/>
      </g>
     </g>
    </g>
    <g id="ytick_7">
     <g id="line2d_18">
      <g>
       <use xlink:href="#mf8904676c2" x="185.38579" y="49.397105" style="fill: #666666; stroke: #666666; stroke-width: 0.8"/>
      </g>
     </g>
    </g>
    <g id="ytick_8">
     <g id="line2d_19">
      <g>
       <use xlink:href="#mf8904676c2" x="185.38579" y="68.577607" style="fill: #666666; stroke: #666666; stroke-width: 0.8"/>
      </g>
     </g>
    </g>
    <g id="ytick_9">
     <g id="line2d_20">
      <g>
       <use xlink:href="#mf8904676c2" x="185.38579" y="87.758109" style="fill: #666666; stroke: #666666; stroke-width: 0.8"/>
      </g>
     </g>
    </g>
    <g id="ytick_10">
     <g id="line2d_21">
      <g>
       <use xlink:href="#mf8904676c2" x="185.38579" y="11.0361" style="fill: #666666; stroke: #666666; stroke-width: 0.8"/>
      </g>
     </g>
    </g>
   </g>
   <g id="patch_6">
    <path d="M 185.38579 97.34836 
L 185.38579 7.2 
" style="fill: none; stroke: #666666; stroke-width: 0.8; stroke-linejoin: miter; stroke-linecap: square"/>
   </g>
   <g id="patch_7">
    <path d="M 185.38579 97.34836 
L 313.84658 97.34836 
" style="fill: none; stroke: #666666; stroke-width: 0.8; stroke-linejoin: miter; stroke-linecap: square"/>
   </g>
   <g id="text_19">
    <!-- $R^2_{adj}$=0.07 -->
    <g style="fill: #19b382" transform="translate(190.524221 83.210893)scale(0.08 -0.08)">
     <use xlink:href="#DejaVuSans-Oblique-52" transform="translate(0 0.701562)"/>
     <use xlink:href="#DejaVuSans-32" transform="translate(76.499193 39.046875)scale(0.7)"/>
     <use xlink:href="#DejaVuSans-Oblique-61" transform="translate(69.482422 -26.642188)scale(0.7)"/>
     <use xlink:href="#DejaVuSans-Oblique-64" transform="translate(112.37793 -26.642188)scale(0.7)"/>
     <use xlink:href="#DejaVuSans-Oblique-6a" transform="translate(156.811523 -26.642188)scale(0.7)"/>
     <use xlink:href="#DejaVuSans-3d" transform="translate(178.994141 0.701562)"/>
     <use xlink:href="#DejaVuSans-30" transform="translate(262.783203 0.701562)"/>
     <use xlink:href="#DejaVuSans-2e" transform="translate(326.40625 0.701562)"/>
     <use xlink:href="#DejaVuSans-30" transform="translate(358.193359 0.701562)"/>
     <use xlink:href="#DejaVuSans-37" transform="translate(421.816406 0.701562)"/>
    </g>
    <!-- $p=$0.230 -->
    <g style="fill: #19b382" transform="translate(190.524221 93.865393)scale(0.08 -0.08)">
     <use xlink:href="#DejaVuSans-Oblique-70" transform="translate(0 0.78125)"/>
     <use xlink:href="#DejaVuSans-3d" transform="translate(82.958984 0.78125)"/>
     <use xlink:href="#DejaVuSans-30" transform="translate(186.230469 0.78125)"/>
     <use xlink:href="#DejaVuSans-2e" transform="translate(249.853516 0.78125)"/>
     <use xlink:href="#DejaVuSans-32" transform="translate(276.140625 0.78125)"/>
     <use xlink:href="#DejaVuSans-33" transform="translate(339.763672 0.78125)"/>
     <use xlink:href="#DejaVuSans-30" transform="translate(403.386719 0.78125)"/>
    </g>
   </g>
  </g>
  <g id="axes_3">
   <g id="patch_8">
    <path d="M 328.14658 97.34836 
L 456.60737 97.34836 
L 456.60737 7.2 
L 328.14658 7.2 
z
" style="fill: #ffffff"/>
   </g>
   <g id="line2d_22">
    <path d="M 314.857533 16.439705 
L 412.310546 131.057214 
L 415.485061 134.79086 
" clip-path="url(#pf6ed8176f6)" style="fill: none; stroke-dasharray: 3.7,1.6; stroke-dashoffset: 0; stroke: #19b382"/>
   </g>
   <g id="LineCollection_3">
    <path d="M 295.36693 30.216603 
L 469.576975 30.216603 
" clip-path="url(#pf6ed8176f6)" style="fill: none; stroke-dasharray: 1.85,0.8; stroke-dashoffset: 0; stroke: #666666; stroke-width: 0.5"/>
   </g>
   <g id="PathCollection_7">
    <defs>
     <path id="C6_0_5b293f0e6f" d="M 0 2.738613 
C 0.726289 2.738613 1.422928 2.450055 1.936492 1.936492 
C 2.450055 1.422928 2.738613 0.726289 2.738613 -0 
C 2.738613 -0.726289 2.450055 -1.422928 1.936492 -1.936492 
C 1.422928 -2.450055 0.726289 -2.738613 0 -2.738613 
C -0.726289 -2.738613 -1.422928 -2.450055 -1.936492 -1.936492 
C -2.450055 -1.422928 -2.738613 -0.726289 -2.738613 0 
C -2.738613 0.726289 -2.450055 1.422928 -1.936492 1.936492 
C -1.422928 2.450055 -0.726289 2.738613 0 2.738613 
z
"/>
    </defs>
    <g clip-path="url(#pf6ed8176f6)">
     <use xlink:href="#C6_0_5b293f0e6f" x="332.576262" y="35.608546" style="fill: none; stroke: #19b382"/>
    </g>
    <g clip-path="url(#pf6ed8176f6)">
     <use xlink:href="#C6_0_5b293f0e6f" x="332.576262" y="28.927214" style="fill: none; stroke: #19b382"/>
    </g>
    <g clip-path="url(#pf6ed8176f6)">
     <use xlink:href="#C6_0_5b293f0e6f" x="332.576262" y="46.547734" style="fill: none; stroke: #19b382"/>
    </g>
    <g clip-path="url(#pf6ed8176f6)">
     <use xlink:href="#C6_0_5b293f0e6f" x="332.576262" y="46.473604" style="fill: none; stroke: #19b382"/>
    </g>
    <g clip-path="url(#pf6ed8176f6)">
     <use xlink:href="#C6_0_5b293f0e6f" x="332.576262" y="27.147775" style="fill: none; stroke: #19b382"/>
    </g>
    <g clip-path="url(#pf6ed8176f6)">
     <use xlink:href="#C6_0_5b293f0e6f" x="355.907577" y="66.045549" style="fill: none; stroke: #19b382"/>
    </g>
    <g clip-path="url(#pf6ed8176f6)">
     <use xlink:href="#C6_0_5b293f0e6f" x="360.757352" y="66.100921" style="fill: none; stroke: #19b382"/>
    </g>
    <g clip-path="url(#pf6ed8176f6)">
     <use xlink:href="#C6_0_5b293f0e6f" x="349.310167" y="56.079502" style="fill: none; stroke: #19b382"/>
    </g>
    <g clip-path="url(#pf6ed8176f6)">
     <use xlink:href="#C6_0_5b293f0e6f" x="347.283215" y="61.870872" style="fill: none; stroke: #19b382"/>
    </g>
    <g clip-path="url(#pf6ed8176f6)">
     <use xlink:href="#C6_0_5b293f0e6f" x="333.525082" y="36.670646" style="fill: none; stroke: #19b382"/>
    </g>
   </g>
   <g id="PathCollection_8">
    <defs>
     <path id="C7_0_7b06b935ef" d="M 0 2.738613 
C 0.726289 2.738613 1.422928 2.450055 1.936492 1.936492 
C 2.450055 1.422928 2.738613 0.726289 2.738613 -0 
C 2.738613 -0.726289 2.450055 -1.422928 1.936492 -1.936492 
C 1.422928 -2.450055 0.726289 -2.738613 0 -2.738613 
C -0.726289 -2.738613 -1.422928 -2.450055 -1.936492 -1.936492 
C -2.450055 -1.422928 -2.738613 -0.726289 -2.738613 0 
C -2.738613 0.726289 -2.450055 1.422928 -1.936492 1.936492 
C -1.422928 2.450055 -0.726289 2.738613 0 2.738613 
z
"/>
    </defs>
    <g clip-path="url(#pf6ed8176f6)">
     <use xlink:href="#C7_0_7b06b935ef" x="332.576262" y="25.75087" style="fill: none; stroke: #e6438c"/>
    </g>
    <g clip-path="url(#pf6ed8176f6)">
     <use xlink:href="#C7_0_7b06b935ef" x="332.576262" y="29.343016" style="fill: none; stroke: #e6438c"/>
    </g>
    <g clip-path="url(#pf6ed8176f6)">
     <use xlink:href="#C7_0_7b06b935ef" x="332.576262" y="32.045512" style="fill: none; stroke: #e6438c"/>
    </g>
    <g clip-path="url(#pf6ed8176f6)">
     <use xlink:href="#C7_0_7b06b935ef" x="332.576262" y="37.05598" style="fill: none; stroke: #e6438c"/>
    </g>
    <g clip-path="url(#pf6ed8176f6)">
     <use xlink:href="#C7_0_7b06b935ef" x="332.576262" y="41.80781" style="fill: none; stroke: #e6438c"/>
    </g>
    <g clip-path="url(#pf6ed8176f6)">
     <use xlink:href="#C7_0_7b06b935ef" x="332.576262" y="43.798561" style="fill: none; stroke: #e6438c"/>
    </g>
    <g clip-path="url(#pf6ed8176f6)">
     <use xlink:href="#C7_0_7b06b935ef" x="332.576262" y="35.091204" style="fill: none; stroke: #e6438c"/>
    </g>
   </g>
   <g id="PathCollection_9">
    <defs>
     <path id="C8_0_ba49448ef2" d="M 0 2.738613 
C 0.726289 2.738613 1.422928 2.450055 1.936492 1.936492 
C 2.450055 1.422928 2.738613 0.726289 2.738613 -0 
C 2.738613 -0.726289 2.450055 -1.422928 1.936492 -1.936492 
C 1.422928 -2.450055 0.726289 -2.738613 0 -2.738613 
C -0.726289 -2.738613 -1.422928 -2.450055 -1.936492 -1.936492 
C -2.450055 -1.422928 -2.738613 -0.726289 -2.738613 0 
C -2.738613 0.726289 -2.450055 1.422928 -1.936492 1.936492 
C -1.422928 2.450055 -0.726289 2.738613 0 2.738613 
z
"/>
    </defs>
    <g clip-path="url(#pf6ed8176f6)">
     <use xlink:href="#C8_0_ba49448ef2" x="332.576262" y="21.608802" style="fill: none; stroke: #777777"/>
    </g>
    <g clip-path="url(#pf6ed8176f6)">
     <use xlink:href="#C8_0_ba49448ef2" x="332.576262" y="23.749771" style="fill: none; stroke: #777777"/>
    </g>
    <g clip-path="url(#pf6ed8176f6)">
     <use xlink:href="#C8_0_ba49448ef2" x="332.576262" y="22.857587" style="fill: none; stroke: #777777"/>
    </g>
    <g clip-path="url(#pf6ed8176f6)">
     <use xlink:href="#C8_0_ba49448ef2" x="332.576262" y="20.882884" style="fill: none; stroke: #777777"/>
    </g>
   </g>
   <g id="matplotlib.axis_5">
    <g id="xtick_9">
     <g id="line2d_23">
      <g>
       <use xlink:href="#maed77148e4" x="332.576262" y="97.34836" style="fill: #666666; stroke: #666666; stroke-width: 0.8"/>
      </g>
     </g>
     <g id="text_20">
      <!-- 0 -->
      <g style="fill: #666666" transform="translate(330.031262 110.42711)scale(0.08 -0.08)">
       <use xlink:href="#DejaVuSans-30"/>
      </g>
     </g>
    </g>
    <g id="xtick_10">
     <g id="line2d_24">
      <g>
       <use xlink:href="#maed77148e4" x="421.16991" y="97.34836" style="fill: #666666; stroke: #666666; stroke-width: 0.8"/>
      </g>
     </g>
     <g id="text_21">
      <!-- 0.5 -->
      <g style="fill: #666666" transform="translate(414.80866 110.42711)scale(0.08 -0.08)">
       <use xlink:href="#DejaVuSans-30"/>
       <use xlink:href="#DejaVuSans-2e" x="63.623047"/>
       <use xlink:href="#DejaVuSans-35" x="95.410156"/>
      </g>
     </g>
    </g>
    <g id="text_22">
     <!-- vNCMLesion Volume ($mm^3$) -->
     <g style="fill: #666666" transform="translate(323.376975 124.511173)scale(0.1 -0.1)">
      <defs>
       <path id="DejaVuSans-76" d="M 191 3500 
L 800 3500 
L 1894 563 
L 2988 3500 
L 3597 3500 
L 2284 0 
L 1503 0 
L 191 3500 
z
" transform="scale(0.015625)"/>
      </defs>
      <use xlink:href="#DejaVuSans-76" transform="translate(0 0.765625)"/>
      <use xlink:href="#DejaVuSans-4e" transform="translate(59.179688 0.765625)"/>
      <use xlink:href="#DejaVuSans-43" transform="translate(133.984375 0.765625)"/>
      <use xlink:href="#DejaVuSans-4d" transform="translate(203.808594 0.765625)"/>
      <use xlink:href="#DejaVuSans-4c" transform="translate(290.087891 0.765625)"/>
      <use xlink:href="#DejaVuSans-65" transform="translate(345.800781 0.765625)"/>
      <use xlink:href="#DejaVuSans-73" transform="translate(407.324219 0.765625)"/>
      <use xlink:href="#DejaVuSans-69" transform="translate(459.423828 0.765625)"/>
      <use xlink:href="#DejaVuSans-6f" transform="translate(487.207031 0.765625)"/>
      <use xlink:href="#DejaVuSans-6e" transform="translate(548.388672 0.765625)"/>
      <use xlink:href="#DejaVuSans-20" transform="translate(611.767578 0.765625)"/>
      <use xlink:href="#DejaVuSans-56" transform="translate(643.554688 0.765625)"/>
      <use xlink:href="#DejaVuSans-6f" transform="translate(711.962891 0.765625)"/>
      <use xlink:href="#DejaVuSans-6c" transform="translate(773.144531 0.765625)"/>
      <use xlink:href="#DejaVuSans-75" transform="translate(800.927734 0.765625)"/>
      <use xlink:href="#DejaVuSans-6d" transform="translate(864.306641 0.765625)"/>
      <use xlink:href="#DejaVuSans-65" transform="translate(961.71875 0.765625)"/>
      <use xlink:href="#DejaVuSans-20" transform="translate(1023.242188 0.765625)"/>
      <use xlink:href="#DejaVuSans-28" transform="translate(1055.029297 0.765625)"/>
      <use xlink:href="#DejaVuSans-Oblique-6d" transform="translate(1094.042969 0.765625)"/>
      <use xlink:href="#DejaVuSans-Oblique-6d" transform="translate(1191.455078 0.765625)"/>
      <use xlink:href="#DejaVuSans-33" transform="translate(1293.517083 39.046875)scale(0.7)"/>
      <use xlink:href="#DejaVuSans-29" transform="translate(1340.787591 0.765625)"/>
     </g>
    </g>
   </g>
   <g id="matplotlib.axis_6">
    <g id="ytick_11">
     <g id="line2d_25">
      <g>
       <use xlink:href="#mf8904676c2" x="328.14658" y="30.216603" style="fill: #666666; stroke: #666666; stroke-width: 0.8"/>
      </g>
     </g>
    </g>
    <g id="ytick_12">
     <g id="line2d_26">
      <g>
       <use xlink:href="#mf8904676c2" x="328.14658" y="49.397105" style="fill: #666666; stroke: #666666; stroke-width: 0.8"/>
      </g>
     </g>
    </g>
    <g id="ytick_13">
     <g id="line2d_27">
      <g>
       <use xlink:href="#mf8904676c2" x="328.14658" y="68.577607" style="fill: #666666; stroke: #666666; stroke-width: 0.8"/>
      </g>
     </g>
    </g>
    <g id="ytick_14">
     <g id="line2d_28">
      <g>
       <use xlink:href="#mf8904676c2" x="328.14658" y="87.758109" style="fill: #666666; stroke: #666666; stroke-width: 0.8"/>
      </g>
     </g>
    </g>
    <g id="ytick_15">
     <g id="line2d_29">
      <g>
       <use xlink:href="#mf8904676c2" x="328.14658" y="11.0361" style="fill: #666666; stroke: #666666; stroke-width: 0.8"/>
      </g>
     </g>
    </g>
   </g>
   <g id="patch_9">
    <path d="M 328.14658 97.34836 
L 328.14658 7.2 
" style="fill: none; stroke: #666666; stroke-width: 0.8; stroke-linejoin: miter; stroke-linecap: square"/>
   </g>
   <g id="patch_10">
    <path d="M 328.14658 97.34836 
L 456.60737 97.34836 
" style="fill: none; stroke: #666666; stroke-width: 0.8; stroke-linejoin: miter; stroke-linecap: square"/>
   </g>
   <g id="text_23">
    <!-- $R^2_{adj}$=0.76 -->
    <g style="fill: #19b382" transform="translate(333.285011 83.210893)scale(0.08 -0.08)">
     <use xlink:href="#DejaVuSans-Oblique-52" transform="translate(0 0.701562)"/>
     <use xlink:href="#DejaVuSans-32" transform="translate(76.499193 39.046875)scale(0.7)"/>
     <use xlink:href="#DejaVuSans-Oblique-61" transform="translate(69.482422 -26.642188)scale(0.7)"/>
     <use xlink:href="#DejaVuSans-Oblique-64" transform="translate(112.37793 -26.642188)scale(0.7)"/>
     <use xlink:href="#DejaVuSans-Oblique-6a" transform="translate(156.811523 -26.642188)scale(0.7)"/>
     <use xlink:href="#DejaVuSans-3d" transform="translate(178.994141 0.701562)"/>
     <use xlink:href="#DejaVuSans-30" transform="translate(262.783203 0.701562)"/>
     <use xlink:href="#DejaVuSans-2e" transform="translate(326.40625 0.701562)"/>
     <use xlink:href="#DejaVuSans-37" transform="translate(350.443359 0.701562)"/>
     <use xlink:href="#DejaVuSans-36" transform="translate(414.066406 0.701562)"/>
    </g>
    <!-- $p=$0.002 -->
    <g style="fill: #19b382" transform="translate(333.285011 93.865393)scale(0.08 -0.08)">
     <use xlink:href="#DejaVuSans-Oblique-70" transform="translate(0 0.78125)"/>
     <use xlink:href="#DejaVuSans-3d" transform="translate(82.958984 0.78125)"/>
     <use xlink:href="#DejaVuSans-30" transform="translate(186.230469 0.78125)"/>
     <use xlink:href="#DejaVuSans-2e" transform="translate(249.853516 0.78125)"/>
     <use xlink:href="#DejaVuSans-30" transform="translate(281.640625 0.78125)"/>
     <use xlink:href="#DejaVuSans-30" transform="translate(345.263672 0.78125)"/>
     <use xlink:href="#DejaVuSans-32" transform="translate(408.886719 0.78125)"/>
    </g>
   </g>
  </g>
 </g>
 <defs>
  <clipPath id="p2fe3009d19">
   <rect x="42.625" y="7.2" width="128.46079" height="90.14836"/>
  </clipPath>
  <clipPath id="pb9f17480b4">
   <rect x="185.38579" y="7.2" width="128.46079" height="90.14836"/>
  </clipPath>
  <clipPath id="pf6ed8176f6">
   <rect x="328.14658" y="7.2" width="128.46079" height="90.14836"/>
  </clipPath>
 </defs>
</svg>
